<?xml version="1.0" encoding="utf-8"?>
<!-- Generator: Adobe Illustrator 24.0.1, SVG Export Plug-In . SVG Version: 6.00 Build 0)  -->
<svg version="1.1" id="Layer_1" xmlns="http://www.w3.org/2000/svg" xmlns:xlink="http://www.w3.org/1999/xlink" x="0px" y="0px"
	 viewBox="0 0 1366 768" style="enable-background:new 0 0 1366 768;" xml:space="preserve">
<style type="text/css">
	.st0{fill:#F9FAEC;}
	.st1{fill:#D4E294;}
	.st2{fill:#E8E7E7;stroke:#FFFFFF;stroke-miterlimit:10;}
</style>
<path class="st0" d="M255.84,423.16c0.13-0.01,0.26-0.01,0.39-0.01c0.79,1,1.41,2.09,1.83,3.29c-1.31,1.76-2.22,0.49-3.17-0.43
	c-0.21-0.39-0.56-0.5-0.97-0.51C254.83,424.94,255.58,424.25,255.84,423.16z"/>
<path class="st1" d="M252.95,427.96c-0.63-0.08-1.28-0.1-1.75-0.63c0.12-1.88,1.26-0.01,1.77-0.48
	C253.25,427.23,253.31,427.6,252.95,427.96z"/>
<path class="st2" d="M721.71,353.06c0.3,0.83,1.19,0.97,1.76,1.5c1.33,1.26,2.65,2.22,1.05,4.45c-1.41,1.97-0.59,4.32,2.05,5.59
	c2.79,1.34,1.9,3.3,1.33,5.09c-0.48,1.53-1.41,3-2.44,4.24c-1.16,1.4-1.99,2.77-2.57,4.57c-0.69,2.16-3.29,2.87-5.26,3.54
	c-7.03,2.39-14.2,4.23-21.75,4.02c-1.42-0.04-2.31-0.75-3.33-1.43c-0.37-0.25-0.81-0.56-1.3-0.26c-0.55,0.33-0.24,0.81-0.17,1.26
	c0.29,1.75,0.35,3.53,1.54,5.05c0.5,0.64,0.51,2.09-0.01,2.34c-1.99,0.95-1.26,2.88-1.85,4.3c-0.3,0.71-0.28,1.63,0.51,2.13
	c2.01,1.26,0.64,2.47-0.33,3.04c-3.21,1.9-6.42,3.79-10.39,1.26c-1.5-0.96-3.44-1.37-5.04-2.38c-0.96-0.61-1.77-0.27-2.33,0.74
	c-0.58,1.03-0.62,2.18-0.37,3.21c0.54,2.2,1.13,4.29,0.52,6.65c-0.33,1.29,0.85,2.27,2.16,2.68c1.39,0.43,1.16,1.25,0.55,2.15
	c-0.66,0.97-2.79,1.14-2.11,2.65c0.42,0.93,2,1.34,3.18,2.05c-1.12,1.13-2.57,1.8-3.7,2.95c-2.52,2.56-1.35,5.53-1.39,8.29
	c-0.02,1.5-0.5,2.31-1.51,3.11c-1.57,1.25-1.67,1.69-0.7,3.86c-3.45-1.46-5.79,0.68-8.24,2.11c-2.67,1.56-3.22,4.72-4.63,7.19
	c-0.61,1.07-0.68,2.83,0.14,3.85c2.51,3.14,4.62,7.05,9.45,7.01c2.13-0.02,2.65,1.11,2.43,2.8c-0.52,4.07-1.95,7.58-5.76,9.84
	c-3.43,2.04-6,5.09-7.5,8.74c-0.48,1.18,0.69,2.93,0.13,4.54c-0.31,0.91-0.56,1.8-1.32,2.42c-1.1,0.91-2.15,1.26-3.03-0.35
	c-0.21-0.38-0.4-1.2-1.18-0.74c-0.32,0.19-0.7,0.53-0.76,0.86c-0.14,0.7,0.59,0.51,0.94,0.72c0.91,0.52,1.15,1.16,0,1.62
	c-2.78,1.12-3.66,3.5-4.04,6.13c-0.19,1.32-2.14,2.77,0.18,4.08c0.4,0.23,0.52,1.12,0.6,1.73c0.15,1.07,1.06,2.79-1.48,1.99
	c-0.56-0.18-1.21,0.18-1.53,0.84c3.35,0.48,3.4,0.54,6.75,6.74c-1.72,0.42-2.8-1.18-4.31-1.25c-0.75-0.04-1.48-0.58-2.18,0.12
	c-0.38,0.38-0.87,0.41-1.3,0.24c-3.45-1.41-7.08-0.95-10.63-0.86c-2.72,0.07-4.91-0.43-6.21-3.05c-0.28-0.55-0.83-0.93-1.19-1.43
	c-0.38-2.29-0.29-4.58,0-6.87c0.12-0.93,0.55-1.97-0.33-2.59c-0.84-0.59-1.8-0.01-2.6,0.45c-1.02,0.58-2.01,1.43-2.96-0.07
	c-0.31-0.66-0.19-1.41-0.46-2.07c-0.13-0.15-0.26-0.3-0.41-0.44c-0.54-0.36-1.07-0.72-1.22-1.42c-0.15-3.11,0.47-6.17,0.31-9.32
	c-0.14-2.77,2.6-4.32,4.35-6.11c1.87-1.92,3.35-5.65,2.63-8.14c-0.8-2.75,0.29-5.11,1.75-7.23c0.82-1.19,1.67-2.24,1.69-3.74
	c0.01-0.8,0.3-1.53,0.76-2.19c0.27-0.39,0.64-0.85,0.5-1.28c-0.8-2.38-0.51-4.73-0.22-7.16c0.16-1.34,0.09-2.56,1.08-3.65
	c1.34-1.48,1.12-2.51-0.56-3.54c-0.34-0.21-0.71-0.33-1.08-0.47c-0.83-0.3-1.35-0.83-1.18-1.77c0.17-0.97,0.96-1.13,1.77-1.23
	c0.78-0.09,1.57,0,2.35-0.12c0.48-0.07,0.98-0.23,0.98-0.81c0.01-0.48-0.47-0.55-0.84-0.65c-3.48-1.01-3.47-1.01-2.6-4.59
	c0.28-1.14,0.26-2.33,0.55-3.47c-0.24-1-1.17-1.88-0.27-3.06c0.57-0.75-0.33-1.26-0.76-1.76c-1.17-1.35-1.7-2.82-0.93-4.54
	c0.35-0.79,0.12-1.53,0-2.3c-0.08-0.54-0.19-1.28,0.47-1.41c1.89-0.38,1.45-1.74,1.35-2.94c-0.25-2.96-0.24-5.94-0.7-8.88
	c-0.09-0.55-0.08-1.14,0.19-1.61c1.27-2.16,0.9-4.65,1.47-6.95c0.17-0.69,0.25-1.38,0.64-2c0.38-0.6,0.84-1.27,0.85-1.92
	c0.03-2.51,0.25-4.76,3.15-5.75c0.71-0.24,0.18-1.21,0.08-1.91c-0.44-2.92-1.82-5.65-1.62-8.69c0.1-1.48,0.2-2.97,0.3-4.45
	c0.16-2.42,1.89-3.95,3.49-5.34c1.8-1.57,1.87-3.43,1.42-5.33c-0.85-3.53,0.57-6.46,2.32-9.2c0.87-1.37,1.79-2.47,1.23-4.2
	c-0.21-0.65-0.11-1.41,0.06-2.1c0.29-1.16,0.75-2.33-0.89-2.91c-0.28-0.1-0.46-0.48-0.43-0.79c0.24-3.04-1.72-5.69-1.54-8.7
	c0.05-0.82-0.38-1.3-0.86-1.83c-1.2-1.33-1.36-2.89-0.44-4.34c0.82-1.3,1.23-2.69,1.55-4.14c0.12-0.54,0.16-1.21,0.58-1.51
	c2.23-1.58,1.6-3.77,1.5-5.95c-0.21-4.41,1.08-8.44,3.76-11.94c1.21-1.58,2.04-3.32,2.76-5.14c0.48-1.22,1-2.21,2.48-2.52
	c1.59-0.33,1.72-1.32,0.85-2.61c-0.83-1.23-1.3-2.52-0.14-3.87c0.75-0.87,0.17-1.83-0.05-2.69c-0.42-1.7-0.9-3.36,0.13-5
	c0.28-0.46,0.13-0.88,0.01-1.35c-0.62-2.43-0.1-3.56,2.11-4.69c0.7-0.36,1.45-0.59,2.17-0.9c3.37-1.44,5.24-5.14,4.48-8.95
	c-0.18-0.31-0.31-0.63-0.33-0.99c1-1.98,2.47-3.57,4.29-4.8c1.26-0.86,3.79-0.97,5.34-0.46c0.75,0.25,1.56,0.2,2.34,0.12
	c3.29-0.33,5.79,0.52,6.38,4.11c0.67,0.15,0.63-0.29,0.73-0.51c2.01-4.64,3.16-5.41,8.09-4.41c2.54,0.52,4.25,2.68,5.59,4.71
	c1.6,2.43,3.57,4.26,5.9,5.93c1.89,1.35,3.42,3.41,5.89,3.59c3.46,0.25,5.87,2.22,8.38,4.26c1.82,1.48,4.22,1.99,6.34,2.98
	c0.93,0.43,1.88,0.79,2.6,1.54c1.13,1.17,1.56,2.19,0.43,3.88c-1.43,2.12-3.4,4.08-3.35,7.03c0.02,1.19-1.3,1.89-2.01,2.81
	c-0.55,0.7-0.67,1.46,0.52,1.35c4.15-0.36,7.93,1.81,12.06,1.72c0.9-0.02,1.65,0.11,2.3-0.62c0.2-0.23,0.53-0.46,0.82-0.42
	c4.12,0.57,5.34-3.48,8.07-5.12c1.35-0.81,1.74-2.59,1.72-4.2c-0.01-1.86,0.42-3.23,2.55-3.53c2.26-0.31,2.57,1.31,3.3,2.85
	c1.14,2.41-0.1,4.77,0.24,7.15c0.11,0.77-0.74,1.33-1.38,1.79c-0.7,0.5-1.37,1.14-2.17,1.4c-3.55,1.13-6.09,3.8-8.86,5.99
	c-2.67,2.11-4.61,5.12-6.53,7.95c-1.65,2.43-4.07,4.07-5.7,6.5c-1.14,1.7-2.41,3.14-2.3,5.41c0.12,2.27-0.87,4.43-1.38,6.61
	c-0.66,2.85-0.78,5.63-0.49,8.48c0.1,0.95,0.33,1.91-0.62,2.57c-1.94,1.34-1.87,3.31-1.54,5.25c0.27,1.55,0.59,3.01,0.12,4.61
	c-0.45,1.54,0.48,2.53,1.87,3.07C720.26,351.94,721.18,352.18,721.71,353.06z"/>
</svg>
