<?xml version="1.0" encoding="utf-8"?>
<!-- Generator: Adobe Illustrator 24.0.1, SVG Export Plug-In . SVG Version: 6.00 Build 0)  -->
<svg version="1.1" id="Layer_1" xmlns="http://www.w3.org/2000/svg" xmlns:xlink="http://www.w3.org/1999/xlink" x="0px" y="0px"
	 viewBox="0 0 1366 768" style="enable-background:new 0 0 1366 768;" xml:space="preserve">
<style type="text/css">
	.st0{fill:#F9FAEC;}
	.st1{fill:#D4E294;}
	.st2{fill:#E9E9E9;stroke:#FFFFFF;stroke-miterlimit:10;}
</style>
<path class="st0" d="M255.84,423.16c0.13-0.01,0.26-0.01,0.39-0.01c0.79,1,1.41,2.09,1.83,3.29c-1.31,1.76-2.22,0.49-3.17-0.43
	c-0.21-0.39-0.56-0.5-0.97-0.51C254.83,424.94,255.58,424.25,255.84,423.16z"/>
<path class="st1" d="M252.95,427.96c-0.63-0.08-1.28-0.1-1.75-0.63c0.12-1.88,1.26-0.01,1.77-0.48
	C253.25,427.23,253.31,427.6,252.95,427.96z"/>
<path class="st2" d="M722.67,386.12c-1.81,2.16-1.56,5.09-2.81,7.51c-1.32,2.57-1.31,2.91-3.66,1.45
	c-5.25-3.26-10.57-2.08-16.02-0.8c-3.05,0.72-5.95,0.9-7.08,4.86c-0.61,2.14-2.16,3.96-2.05,6.5c0.09,2.18-1.21,4.16-1.72,6.28
	c-0.21,0.86-0.54,0.97-1.28,0.41c-0.38-0.29-1.03-0.28-1.56-0.3c-5.5-0.22-5.5-0.21-8.44,4.59c-1.04-4.14-4.11-4.35-7.41-4.13
	c-1.04,0.07-1.95-0.07-2.8-0.86c-1.16-1.07-2.2-1.57-3.17,0.54c-0.65,1.41-2.82,1.52-3.72,3.11c-0.59,1.04-1.75,1.74-2.27,2.9
	c-3.16,1.34-3.94,0.94-4.22-2.18c-0.28-3.17-1.55-6.12-2.33-9.17c-0.44-1.7-1.95-3.31-2.87-5.03c-0.19-0.35-0.44-0.65-0.37-1.06
	c0.34-2,0.46-4.07,1.45-5.88c0.41-0.75,0.31-1.08-0.32-1.51c-2.27-1.52-3-3.79-3.15-6.4c-0.12-1.97-1.77-3.27-2.4-5.03
	c-1.31-2.66,0.13-4.51,1.89-6.24c0.51-0.5,0.79-1.08,1.12-1.7c0.64-1.2,0.69-1.61-0.79-2.28c-1.66-0.75-1.75-2.7-1.69-4.43
	c0,0,0,0.01,0,0.01c1.14-0.95,2.26-1.63,0.8-3.49c-0.88-1.13,0.62-2.55,1.41-3.61c0.95-1.28,1.48-2.24,0.88-4.08
	c-0.67-2.04,0.4-4.4,0.16-6.67c-0.08-0.73,1.05-0.98,1.9-0.98c11.68,0.01,23.36,0.01,35.03,0.01c0.48,0,0.94,0.05,1.27,0.46
	c1.64,0.92,3.29,1.82,5.18,2.12c0.31,0.05,0.67,0.09,0.83,0.37c1.41,2.56,3.82,2.32,6.18,2.22c1.78-0.07,3.04,1.09,4.45,1.89
	c0.2,0.11,0.46,0.39,0.41,0.54c-0.97,2.91,3.03,5.6,0.37,8.58c-0.22,0.24-0.25,0.65,0,0.87c1.58,1.37,1.17,3.3,1.39,5.03
	c0.19,1.46,0.82,2,2.3,1.95c2.58-0.09,5.18-0.06,7.76-0.01c2,0.04,2.17,0.32,1.56,2.2c-0.69,2.1,0.51,5.24,2.64,5.83
	c1.56,0.43,2.01,1.29,2.22,2.56C721.89,384.15,723.03,384.9,722.67,386.12L722.67,386.12z"/>
</svg>
