<?xml version="1.0" encoding="utf-8"?>
<!-- Generator: Adobe Illustrator 24.0.1, SVG Export Plug-In . SVG Version: 6.00 Build 0)  -->
<svg version="1.1" id="Layer_1" xmlns="http://www.w3.org/2000/svg" xmlns:xlink="http://www.w3.org/1999/xlink" x="0px" y="0px"
	 viewBox="0 0 1366 768" style="enable-background:new 0 0 1366 768;" xml:space="preserve">
<style type="text/css">
	.st0{fill:#F9FAEC;}
	.st1{fill:#D4E294;}
	.st2{fill:#E8E7E7;stroke:#FFFFFF;stroke-miterlimit:10;}
</style>
<path class="st0" d="M255.84,423.16c0.13-0.01,0.26-0.01,0.39-0.01c0.79,1,1.41,2.09,1.83,3.29c-1.31,1.76-2.22,0.49-3.17-0.43
	c-0.21-0.39-0.56-0.5-0.97-0.51C254.83,424.94,255.58,424.25,255.84,423.16z"/>
<path class="st1" d="M252.95,427.96c-0.63-0.08-1.28-0.1-1.75-0.63c0.12-1.88,1.26-0.01,1.77-0.48
	C253.25,427.23,253.31,427.6,252.95,427.96z"/>
<path class="st2" d="M603.71,308.34c51.72,0,103.45,0,155.17,0c0.78,0,1.58-0.05,2.35,0.06c0.66,0.09,1.39,0.57,0.84,1.25
	c-1.55,1.91-0.93,4.12-1.08,6.22c-0.63,4.35-0.56,8.64,0.19,13.03c0.36,2.11-0.87,4.5-1.38,6.76c-0.14,0.61-0.46,1.22-0.42,1.82
	c0.21,3.08-0.85,5.58-2.74,8.03c-1.3,1.69-1.15,4.04-0.58,6.13c0.37,1.35,0.22,2.58-0.74,3.49c-1.94,1.84-2.68,4.32-3.96,6.51
	c-1.15,1.97-3.06,3.51-3.77,5.85c-0.15,0.5-0.57,0.88-0.36,1.51c0.8,2.38-0.31,3.53-2.53,4.29c-1.79,0.61-3.5,1.46-3.64,3.95
	c-0.05,0.93-1.71,0.78-2.56,0.88c-1.4,0.17-3.34,1.81-4.14-1.12c-0.22-0.79-1.48-0.19-1.47,0.54c0.02,2.41-1.59,1.5-2.48,1.13
	c-1.95-0.83-3.7,0.3-5.54,0.28c-0.41-0.01-1.13,0.37-1.18,0.66c-0.52,3.01-4.43,2.12-5.31,4.67c-0.03,0.09-0.27,0.16-0.4,0.15
	c-4.9-0.35-8.06,2.96-11.33,5.69c-1.92,1.6-4.7,2.1-5.97,4.73c-0.19,0.4-2.39,1.65-4.05,1.33c0.15,0.97,0.7,1.37,1.4,1.59
	c0.72,0.23,0.6,0.86,0.21,1.02c-1.67,0.67-0.74,1.86-0.72,2.9c0.04,3.19,0.03,6.38,0.02,9.57c0,1.09-0.04,2.19-0.11,3.28
	c-0.19,2.68-0.65,4.99-3.29,6.76c-3.38,2.26-5.4,5.78-6.75,9.66c-0.73,2.12-1.38,4.32-3.15,5.91l0,0c0.36-1.2,0.81-2.37,1.05-3.59
	c0.19-0.94-0.15-2.01-1.32-1.24c-1.44,0.96-2.28,0.57-3.06-0.68c-0.24-0.38-0.49-0.65-0.92-0.45c-0.53,0.24-0.47,0.76-0.38,1.22
	c0.6,3.09-0.86,6.55-3.54,8.16c-1.12,0.67-0.55,2.1-1.41,2.85c-0.89,0.78-1.56,1.56-0.44,2.71c0.18,0.19,0.14,0.86-0.06,1.1
	c-1.57,1.89-1.77,4.32-2.65,6.47c-1.03,2.54-2.93,4.12-5.2,5.46c-0.87-2.54,1.14-3.96,1.97-5.79c0.07-0.15,0.42-0.33,0.48-0.29
	c1.49,1.12,1.96,0,2.66-1.06c1.04-1.57,0.06-3.03-0.04-4.53c-0.01-0.14-0.33-0.34-0.53-0.36c-0.49-0.06-0.66,0.32-0.75,0.72
	c-0.29,1.34-0.98,2.76-2.31,2.74c-1.52-0.02-2.54-1.28-3.03-2.87c-0.6-1.94-2.17-2.76-4.07-3.06c-0.1-0.03-0.21-0.07-0.32-0.1
	c-1.09-1.84-2.83-2.77-4.78-3.42c-0.83-0.28-1.56-0.72-2.03-1.48c-0.77-1.24-1.44-2.46-3.17-1.04c-0.61,0.5-1.01-0.16-1.3-0.81
	c-1.09-2.42-2.97-4.12-5.16-5.53c-1.06-0.75-1.87-0.16-2.76,0.41c-0.5,0.32-1.21,0.63-1.71,0.01c-0.46-0.57,0.23-0.95,0.41-1.42
	c0.51-1.29,1.55-2.06,2.51-2.97c2.55-2.42,4.28-5.51,6.62-8.13c1.85-2.08,4.02-3.76,6.05-5.61c2.33-2.12,5.36-2.77,7.65-4.76
	c1.05-0.91,2.17-1.62,1.38-3.26c-0.17-0.35-0.22-0.85-0.04-1.15c1.32-2.2-0.42-4.05-0.7-6.05c-0.18-1.28-1.46-1.43-2.65-1.3
	c-2.38,0.25-2.47,0.03-1.93-2.33c0.45-1.97,1.2-3.88,1.39-5.92c0.3-3.3-1.06-4.36-4.14-3.27c-2.05,0.73-3.11,0.2-3.52-1.95
	c-0.5-2.59-0.89-5.21-1.45-7.79c-0.11-0.2-0.2-0.41-0.29-0.62c-1.1-1.67-3.97-2.77-5.72-2.23c-2.79,0.87-5.4-0.25-8.06-0.76
	c-0.66-0.13-0.72-0.76-0.74-1.32c-0.02-0.47,0.18-0.92,0.2-1.39c0.16-3.07,1.04-6.2-0.87-9.09c-0.34-0.51-0.43-1.29-0.06-1.81
	c0.74-1.04,0.67-1.94,0.05-3.01c-0.37-0.65-0.05-1.42,0.33-2.01c1.56-2.43,1.92-5.25,2.66-7.95c0.05-0.22,0.12-0.44,0.19-0.66
	c-0.47-2.23-0.99-4.25-3.42-5.4c-2.1-1-2.94-3.72-2.05-5.9c0.67-1.66,0.06-1.91-1.36-1.9c-2.51,0.02-5.02-0.02-7.53,0.01
	c-1.73,0.02-2.78-0.5-3.01-2.46c-0.17-1.44-0.23-2.98-1.09-4.28c-0.13-0.19-0.26-0.51-0.14-0.67c2.2-2.88-0.63-5.5-0.46-8.3
	c0.08-1.35-2.36-2.91-4.29-3.09c-0.94-0.09-1.92,0.14-2.81-0.08c-3.16-0.78-5.64-3.02-8.62-4.22
	C603.63,309.27,603.56,308.76,603.71,308.34z"/>
</svg>
