<?xml version="1.0" encoding="utf-8"?>
<!-- Generator: Adobe Illustrator 24.0.1, SVG Export Plug-In . SVG Version: 6.00 Build 0)  -->
<svg version="1.1" id="Layer_1" xmlns="http://www.w3.org/2000/svg" xmlns:xlink="http://www.w3.org/1999/xlink" x="0px" y="0px"
	 viewBox="0 0 1366 768" style="enable-background:new 0 0 1366 768;" xml:space="preserve">
<style type="text/css">
	.st0{fill:#F9FAEC;}
	.st1{fill:#D4E294;}
	.st2{fill:#CDDD90;}
	.st3{fill:#B2D235;}
	.st4{fill:#B2D235;stroke:#FFFFFF;stroke-miterlimit:10;}
</style>
<path class="st0" d="M255.84,423.16c0.13-0.01,0.26-0.01,0.39-0.01c0.79,1,1.41,2.09,1.83,3.29c-1.31,1.76-2.22,0.49-3.17-0.43
	c-0.21-0.39-0.56-0.5-0.97-0.51C254.83,424.94,255.58,424.25,255.84,423.16z"/>
<path class="st1" d="M252.95,427.96c-0.63-0.08-1.28-0.1-1.75-0.63c0.12-1.88,1.26-0.01,1.77-0.48
	C253.25,427.23,253.31,427.6,252.95,427.96z"/>
<g>
	<path class="st2" d="M655.78,470.84c0.01-0.37,0.01-0.74,0.02-1.11c0.7-0.47,0.52,0.56,0.95,0.55
		C656.7,470.94,656.59,471.49,655.78,470.84z"/>
	<path class="st3" d="M696.32,519.7c1.22,0.41,1.98,1.06,2.79,2.27c1.87,2.81,3.8,5.74,6.89,7.49c1.65,0.94,2.69,2.57,4.33,3.56
		c1.63,0.98,3.13,2.01,5.18,1.77c0.66-0.08,1.78-0.45,1.87,0.74c0.09,1.28-1.1,2-1.99,1.8c-1.71-0.37-2.65,0.16-3.76,1.41
		c-0.9,1.01-2.2,0.86-3.6,0.04c-3.58-2.12-7.58-2.57-11.69-2.14c-0.67-0.58-0.66-1.38-0.67-2.16c-0.03-4.21-0.03-8.41,0-12.62
		C695.67,521.09,695.66,520.29,696.32,519.7z"/>
	<g>
		<path class="st4" d="M705.32,258.6c0.14,0.04,0.26,0.13,0.36,0.26c1,3.54-0.98,7.84-4.16,9.28c-1.47,0.67-3.18,0.96-4.3,2.3
			c-0.71,0.86-1.5,1.68-0.49,2.85c0.39,0.45,0.44,1.05,0.11,1.54c-1.17,1.69-0.65,3.39-0.15,5.13c0.33,1.17,0.74,2.32-0.46,3.46
			c-0.89,0.85-0.09,1.9,0.44,2.77c1.36,2.26,1.11,2.96-1.4,3.37c-0.89,0.14-1.13,0.61-1.38,1.32c-1.02,2.79-2.08,5.54-4.41,7.61
			c-0.9,0.8-0.9,2.13-1.16,3.26c-0.27,1.2-0.17,2.51-1.29,3.4c-0.52,0.41-0.34,0.97-0.17,1.52c0.61,1.9,0.07,3.87,0.38,5.79
			c0.06,0.38-0.05,0.9-0.37,1.07c-1.91,0.99-1.9,2.92-2.32,4.62c-0.16,0.64-0.49,1.11-0.88,1.61c-0.81,1.05-1.25,2.5-0.61,3.53
			c1.86,2.95,1.71,6.49,3.09,9.54c0.33,0.73,0,1.38,0.03,2.07c0.02,0.45-0.15,1.2,0.36,1.24c2.34,0.2,1.36,1.47,0.93,2.59
			c-0.06,0.15-0.12,0.32-0.08,0.46c0.94,3.13-0.79,5.42-2.11,8.02c-1.18,2.32-2.43,4.86-1.29,7.86c1.06,2.78-0.95,4.78-2.92,6.24
			c-1.47,1.09-1.96,2.56-2.09,3.96c-0.42,4.52-0.12,9.02,1.61,13.32c0.45,1.13,0.35,2.11-1.15,2.46c-1.63,0.38-2.7,1.24-2.09,3.17
			c0.23,0.71,0.22,1.54-0.29,2.02c-1.89,1.74-1.58,4.31-2.04,6.37c-0.81,3.68-1.5,7.54-0.65,11.45c0.28,1.32,0.61,2.7,0.54,4.12
			c-0.05,1.12,0.3,2.25-1.58,2c-0.96-0.13-0.79,0.76-0.57,1.36c0.39,1.08,0.36,2.05-0.16,3.14c-0.72,1.52,0.25,2.67,1.25,3.72
			c0.68,0.71,1.48,1.19,0.37,2.46c-1,1.16,0.97,1.63,1.32,2.57c-1.02,1.63-0.63,3.59-1.23,5.34c-0.63,1.81,0.61,2.01,2.1,1.93
			c1.09-0.06,2.59-0.33,2.02,1.75c-0.22,0.8-0.37,1.21-1.36,1.08c-0.99-0.14-2.03,0.03-3.05,0.07c-0.51,0.02-1.17-0.21-1.24,0.65
			c-0.06,0.79,0.4,1.13,1.1,1.26c0.38,0.07,0.79,0.09,1.15,0.23c2.05,0.84,2.65,3.34,0.89,4.51c-1.81,1.21-1.53,2.47-0.79,3.96
			c0.18,0.36,0.52,0.91,0.25,1.05c-2.73,1.38-0.41,3.09-0.25,4.58c0.12,1.1,0.33,1.99-0.8,2.62c-0.14,0.08-0.37,0.18-0.37,0.26
			c0.1,2.9-1.48,5.1-2.96,7.37c-0.33,0.51-0.15,1.27-0.68,1.89c-0.76,0.91-0.69,2.14-0.05,3.08c1.13,1.65,1.02,3.01-0.54,4.25
			c-0.36,0.28-0.44,0.64-0.34,1.03c0.47,1.8-0.87,2.35-1.88,3.48c-1.99,2.22-5.52,3.73-4.14,8.11c0.66,2.09-0.31,4.7-0.55,7.07
			c-0.2,0.68-0.55,1.21-1.33,1.3c-0.46,0.01-0.87-0.16-1.24-0.42c-0.36-0.28-0.53-0.65-0.47-1.12c0.07-0.29,0.22-0.54,0.36-0.78
			c0.17-0.59-0.35-0.75-0.67-1.04c-0.51-0.48-0.86-1-0.47-1.72c1.21-0.45,2.01-1.25,2.11-2.61c1.17-1.72-0.77-2.28-1.27-3.37
			c-0.56-0.8,1.76-1.77-0.15-2.49c-0.78-0.47-1.57-0.92-1.91-1.85c-0.14-0.33-0.23-0.67-0.28-1.02c-0.55-2.12,0.79-2.37,2.35-2.4
			c0.46-0.05,0.92-0.1,0.89-0.74c-0.07-0.47-0.22-0.92-0.37-1.36c-0.59-1.21-1.36-2.34-1.61-3.69c0.34-1.32,1.29-1.17,2.23-0.89
			c0.75,0.22,1.43,0.62,2.11,1.01c0.49,0.28,0.98,0.62,1.51,0.06c1.07-2.07-1.24-2.33-1.91-3.44c-0.64-1.07-0.85,0.88-1.56,0.45
			c-0.48-0.05-0.81-0.35-1.1-0.71c-0.12-0.19-0.19-0.39-0.22-0.61c1.07-1.26-0.88-2.74,0.29-4c0.12-0.48,0.24-0.96,0.36-1.43
			c-0.04-0.33,0.03-0.64,0.12-0.95c-1.11-1.91-2.17-3.87-5-2.78c-0.49,0.19-1.25,0.07-1.69-0.5c-0.14-1.96-0.13-3.85,1.98-4.91
			c0.58-0.14,1.12,0,1.65,0.21c0.57,0.28,1.16,0.27,1.76,0.12c0.32-0.03,0.63,0.01,0.93,0.13c0.88,0.55,1.82,1.06,1.13,2.76
			c1.1-1.46,1.88-2.64,2.44-3.95c0.42-0.85-0.68-0.72-0.79-1.22c-0.53-0.85-0.12-1.43,0.56-1.92c0.33-0.54,1.92-0.43,0.86-1.69
			c-0.22-0.24-0.38-0.52-0.43-0.85c0-0.22,0.04-0.43,0.13-0.63c0.71-1.07,1.58-1.08,2.58-0.4c-0.5-0.42-1.04-0.77-1.45-1.28
			c-1.45-2.35,0.66-3,1.92-4.05c2.3-2.25,2.24-2.84-0.46-4.81c-0.65-0.73-1.34-1.46-0.56-2.51c0.31-0.34,0.57-0.9,0.94-0.99
			c1.65-0.42,1.45-1.65,0.74-2.38c-1.41-1.46-1.43-2.58-0.12-4.09c0.91-1.06,1.53-2.35,0.42-3.83c-0.3-0.4-0.07-1.22-0.08-1.84
			c0.8-0.46,1.89-0.32,2.28-1.62c0.68-2.25,0.42-3.02-1.79-3.64c-0.68-1.11,0.25-1.39,0.92-1.81c0.32-0.42,0.86-0.55,1.21-0.93
			c0.25-0.2,0.43-0.45,0.57-0.74c0.19-0.25-0.1-0.2-0.1-0.17c-0.06,0.63-0.55,0.87-1.07,1.06c-0.54,0.11-0.79-0.29-1.1-0.61
			c-0.97-1.34-1.96-2.35-2.86,0.02c-0.48,1.28-1.62,1.19-2.54,1.14c-1.6-0.08-1.67-1.85-1.96-2.77c-0.73-2.26-0.91-4.72,0.38-6.95
			c0.49-0.85,0.19-1.72,0.1-2.52c-0.25-2.36,1.67-3.68,2.55-5.45c1.15-2.31,0.87-4.38,0.08-6.53c-0.76-2.07-1.7-4.05-0.78-6.33
			c0.27-0.67,0.07-1.48-0.38-2.02c-1.32-1.53-0.34-3.4-0.83-5.07c-0.24-0.84,0.57-0.6,1.12-0.52c1.38,0.21,1.82-0.62,2.19-1.82
			c0.98-3.19,2.36-6.28,3.14-9.52c1.02-4.24,4.35-7.62,4.42-12.13c0.03-2.01,0.8-3.55,1.95-5.05c0.27-0.35,0.61-0.97,0.47-1.27
			c-1.11-2.54,0.76-4.56,1.03-6.82c0.4-3.35-0.39-6.72-0.86-10.06c-0.17-1.24-0.22-2.52-0.58-3.7c-0.81-2.67,0.85-4.48,1.98-6.52
			c1.08-1.96,0.81-4-0.1-5.96c-0.62-1.34-0.9-2.48,0.17-3.84c0.95-1.21,1.39-2.77,1.51-4.35c0.11-1.4,0.04-2.83,1.3-3.87
			c0.25-0.2,0.47-0.8,0.35-1.05c-1.03-2.08,0.57-3.7,0.95-5.51c0.43-2.07,0.79-4.12,0.46-6.2c-0.18-1.12-0.02-2.07,0.68-2.85
			c1.02-1.14,1.16-2.47,0.66-3.71c-1.05-2.64-0.37-5.29-0.17-7.89c0.11-1.48,1.14-2.87-0.47-4.19c-0.34-0.28-0.09-1.26,0.37-1.45
			c1.83-0.77,1.56-2.37,1.64-3.8c0.09-1.65,0.34-3.25,0.69-4.87c0.45-2.05,0.51-4.11,0.25-6.25c-0.57-4.68,0.46-9.51-1.28-14.1
			c-0.62-1.32-0.18-2.71-0.27-4.07c-0.02-0.3-0.17-0.12,0.03-0.2c2.55-1.11,2.76-4.12,4.69-5.72c0.52-0.14,0.95,0.05,1.34,0.35
			c1.56,1.82,2.58,3.84,2.88,6.29c0.22,1.79,0.94,3.47,2.44,4.69c0.8,0.66,1.03,1.49,0.61,2.52c-0.59,1.44-0.52,3.03-1,4.53
			c-0.55,1.69,0.72,3.31,1.55,4.5c2.39,3.44,2.84,7.4,3.68,11.25c0.6,2.77,0.55,2.89,3.54,2.48
			C704.58,258.07,704.93,258.38,705.32,258.6z"/>
		<path class="st3" d="M659.14,485.36c-0.11,0.72,0.28,1.15,0.88,1.44c0.14,0.1,0.19,0.21,0.16,0.33c-0.03,0.12-0.06,0.19-0.1,0.19
			c-1.02,0.56-1.6-0.56-2.44-0.63c-0.13,0.12-0.15,0.25-0.07,0.41c0.06,0.12,0.09,0.19,0.14,0.19c0.58,0.85,1.56,0.97,2.4,1.34
			c-0.07,0.42-0.07,0.81,0.35,1.07c0.08,0.42-0.2,0.59-0.52,0.73c-1.42,0.45-2.51-0.21-3.88-1.44c0.69,0.82,1.1,1.23,1.23,1.81
			c0.15,0.54,0.29,1.08,0.28,1.64c-0.12,0.81-0.47,1.45-1.29,1.72c-0.23,0.1-0.46,0.2-0.3,0.54c0.93,0.98,2.26,1.04,3.4,1.5
			c0.19,0.09,0.36,0.21,0.53,0.35c0.35,0.28,0.54,0.85,1.16,0.61c0.37-0.15,0.73-0.31,1.08,0.04c0.51,0.84,0.07,1.6-0.21,2.37
			c-0.05,0.87,0.12,1.67,0.77,2.29c0.57,0.53,0.41,1.29,0.63,1.93c0.32,0.83,0.81,1.57,1.34,2.28c0.26,0.32,0.55,0.61,0.72,0.99
			c0.03,0.22-0.01,0.42-0.11,0.61c-0.64,0.67-1.48,1.21-1.37,2.31c-0.12,0.88-0.22,1.76-1.11,2.24c-0.14,0.05-0.25,0.01-0.31-0.13
			c-0.15,0.1-0.12,0.14,0.09,0.13c0.37,0.13,0.68-0.12,1.02-0.11c0.31-0.02,0.62,0,0.93,0.06c1.12,0.29,1.11,1.17,1.07,2.07
			c0.03,0.63,0.36,1.14,0.71,1.62c0.29,0.29,0.69,0.25,1.05,0.35c0.37,0.17,0.53,0.61,0.95,0.71c0.42,0.03,0.83,0.06,1.16,0.36
			c0.11,0.17,0.14,0.35,0.11,0.55c-0.26,0.41,0.31,0.18,0.31,0.39c0.31,0.62-0.05,0.96-0.51,1.27c-0.41,0.17-0.83,0.17-1.25,0.07
			c-0.2-0.03-0.38-0.23-0.61-0.1c0.21,0.1,0.39,0.25,0.6,0.36c0.41,0.29,0.8,0.61,1.22,0.87c0.58,0.39,1.17,0.74,1.87,0.87
			c0.19,0.05,0.38,0.13,0.55,0.23c0.16,0.11,0.3,0.25,0.42,0.4c0.28,0.38,0.55,0.76,0.99,0.98c0.53,0.26,1.14,0.29,1.67,0.53
			c1.58,0.79,3.19,1.4,5,1.17c1.56,0.81,0.09,3.02,1.74,3.79c0.47-0.29,0.66,0.02,0.83,0.39c0.03,0.27-0.05,0.5-0.26,0.68
			c-0.12,0.81,0.85,0.31,0.98,0.82c0.82,0.47,1.07,1.16,0.78,2.05c-0.09,0.2-0.24,0.34-0.44,0.43c-0.68,0.08-0.97-0.57-1.49-0.79
			c-0.28,0-0.5,0.14-0.71,0.32c-0.8,1.05-1.78,0.53-2.7,0.33c-0.13-0.01-0.24,0-0.3,0.03c0.11-0.01,0.24-0.01,0.39,0.01
			c0.79,0.2,1.4,0.72,2.12,1.03c1.05,0.6,2.18,1.02,3.29,1.48c0.63,0.22,1.23,0.55,1.93,0.35c0.39-0.08,0.77-0.19,1.15-0.33
			c0.57-0.34,1.14-0.7,1.83-0.3c0.98,0.93,0.73,1.89,0.08,2.86c-0.22,0.25-0.5,0.42-0.78,0.57c-0.74,0.54-0.4,1.16-0.13,1.77
			c0.26,0.3,0.63,0.43,0.99,0.56c0.79,0.5,1.6,1.26,2.2-0.22c0.46-0.34,0.92-0.64,1.4-0.03c-0.39,1.56,0.9,0.27,1.18,0.69
			c-0.6,2.47-0.53,2.53,3.76,2.82l0.01,0.01c-0.04,0.53,0.03,1.34-0.66,1.29c-2.04-0.14-3.85,0.65-6.21-0.42
			c-3.32-1.5-5.94-4.58-10.06-4.63c-1.24-0.02-3.71-0.87-2.92-3.54c0.14-0.48-0.06-0.88-0.96-0.66c-2.17,0.54-3.66,0.13-4.94-2.35
			c-0.8-1.57-2.56-3.45-4.9-3.93c-1.78-0.37-3.21-1.17-2.79-3.44c0.22-1.16-0.34-1.93-1.44-2.36c-1.82-0.71-2.21-2.11-1.65-3.81
			c0.41-1.25,0.26-1.23-1.06-1.12c-1.23,0.1-2.97-0.35-2.68-2.55c0.43,0.23,0.83,0.44,1.22,0.66c0.46-0.62,1.4-0.28,1.85-0.93
			c0.49-0.68,0.98-1.36,1.62-2.25c-3.49-0.62-5.64-3.05-7.78-5.42c-0.59-0.66-1.08-1.67-0.43-2.69c0.26-0.25,0.59-0.51,0.64-0.85
			c0.02-0.16-0.45,0.2-0.64-0.1c-0.43-0.37-1.39-0.58-0.18-1.3c0.95-0.56,0.42-2.47-0.74-2.94c-0.41,0.05-0.69-0.19-0.95-0.46
			c-0.28-0.57-0.59-1.14,0.04-1.68c1.56-1.35,1.12-3.22,1.21-4.93c0.02-0.42-0.14-1.33-0.89-0.96c-1.89,0.94-1.74-0.55-1.85-1.52
			c-0.2-1.74-0.38-3.51-0.3-5.25c0.04-0.81,0.27-2.29,1.82-1.14c0.36,0.46,0.34,0.91-0.04,1.35c0.06,0.29,0.2,0.6,0.16,0.88
			c-0.06,0.56-1.41,0.82-0.39,1.67c0.29,0.24,0.6,0.73,0.9,0.18c0.4-0.74,1.81-0.89,1.32-2.09c-0.42-1.04-0.52-2.24-1.37-3.09
			c-0.49-0.49-0.35-0.79,0.33-0.86c0.09-0.05,0.17-0.09,0.26-0.14c0.57-0.76-0.43-2.58,1.59-2.35c0.17,0.14,0.31,0.31,0.4,0.51
			c0.08,0.21,0.12,0.42,0.15,0.64c0.04,0.44,0.01,0.87-0.03,1.31c-0.05,0.78-0.1,1.61,1.04,0.83c0.73-0.5,1.44-0.93,2.36-0.79
			c0.48,0.1,0.87,0.31,1.04,0.81C659.95,484.47,659.54,484.91,659.14,485.36z"/>
		<path class="st4" d="M679.85,524.87c-2.11,1.77-3.59,0.05-5.21-0.93c-0.53-0.34-0.9-0.76-0.7-1.45c0.87-1.07,1.07-2.38,1.34-3.67
			c0.42-0.81,1.31-1.06,1.94-1.62c0.75-0.67,1.59-1.34,1.03-2.55c-1.86-2.76-4.37-3.7-7.58-2.71c-0.31,0.09-0.61-0.03-0.87-0.22
			c-0.44-0.59-0.42-1.26-0.33-1.94c0.36-1.09,0.48-2.17-0.08-3.24c-0.07-0.19-0.11-0.39-0.14-0.6c0.02-0.42,0.22-0.77,0.48-1.08
			c0.25-0.28,0.43-0.58,0.36-0.98c0.05-0.78-0.46-1.48-0.35-2.27c0.16-0.29,0.35-0.51,0.71-0.32c1.05,1.17,2.62,1.88,3.03,3.64
			c0.19,0.8,1.05,0.79,1.77,0.79c2.02-0.01,4.05,0.07,6.07-0.02c2.88-0.13,5.71-0.01,8.38,1.22c0.72,0.83-0.42,3.79-1.6,3.81
			c-2.34,0.05-3.93,1.98-6.23,2.21c-0.98,0.1-0.9,1.56-1.12,2.55C680.07,518.6,680.46,521.79,679.85,524.87z"/>
		<path class="st3" d="M693.45,531.94c-1.71-0.91-3.39-1.9-5.15-2.71c-1.56-0.71-2.19-2.08-2.32-3.51
			c-0.14-1.49,1.51-1.39,2.42-1.98c1.12-0.72,3.42-1.15,2.66-2.9c-0.75-1.73-2.82-0.81-4.16-0.31c-1.06,0.4-1.92,0.95-2.44-0.38
			c-0.41-1.04-1.29-2.3,0.58-3.08c2.27-0.96,0.42-2.14-0.31-3.62c1.44,0.61,2.34,1.98,3.64,0.58c0.87-0.94,0.81-2.31,1.87-3.44
			c0.72,1.9,1.67,3.21,3.7,1.91c1.31-0.48,1.67,0.16,1.66,1.35c-0.03,2.7,0.24,5.39,0.24,8.09c-0.02,4.51,0.04,9.02-0.03,13.52
			c-0.07,0.7-0.42,1.15-1.14,1.27c-0.2,0.05-0.48-0.33-0.63,0.1c0.08,0.28,0.07,0.55-0.08,0.8c-0.43,0.42-0.96,0.48-1.52,0.46
			c-0.92-0.14-1.84-0.3-2.67-0.77c-0.47-0.47-0.2-1.09-0.32-1.63c0.01-0.23,0.09-0.43,0.24-0.6c1.01-0.14,1.65-0.95,2.49-1.4
			C692.58,533.1,694.27,533.43,693.45,531.94z"/>
		<path class="st3" d="M660.05,447.71c-0.31-0.03-0.62-0.06-0.93-0.09c-0.16-1.38-0.65-2.43-2.31-2.28
			c-1.16,0.24-0.4,1.46-1.01,1.98c-1.25-0.25-1.47,1.79-2.83,1.28c-0.04-1.22,0.47-2.39-0.1-3.69c-0.52-1.19,1.55-3.43,2.9-3.43
			c0.76,0,0.86-0.21,1.51-1.7c0.66,0.31,0.68,0.16,0.65,0c-0.09-0.43-0.03-1.01-0.77-0.81c-0.06,0.01-0.29,0.1-0.16,0.15
			c0.33,0.12,0.49,0.33,0.61,0.62c0.06,0.14,0.1,0.29-0.32,0.04c-1.99-1.03-1.64-1.84-0.88-2.64c1.15-1.22,1.03-2.75-0.29-3.68
			c-0.57-0.4-1.99-0.61-1.36-1.44c0.8-1.05,1.25,0.62,2.17,0.91c0.2-2.59,0.13-5.21,2.09-7.29c0.75-0.79,1.44-1.49,2.51-1.44
			c1.19,0.06,1.18,1.29,1.67,2.04c1.17,1.78,0.01,3.76,0.61,5.67c0.74-1.37,1.04-2.85,0.93-4.38c-0.12-1.78,0.78-0.79,1.42-0.59
			c0.2,0.82,0.05,1.79,0.98,2.29c1.12,0.99,0.62,1.56-0.51,1.96c-0.35,0.32-0.17,0.77-0.27,1.15c-0.33,0.5-0.76,0.97-0.44,1.64
			c-0.71,1.43-1.2,2.9-1.02,4.54c-0.08,0.69-0.51,1.2-0.93,1.7c-2.29,0.94-0.24,2.12-0.18,3.19c-0.24,0.44-0.97,0.73-0.47,1.42
			c-0.12,0.16-0.27,0.3-0.43,0.43c-0.71,0.35-1.41,0.71-1.77,1.48c-0.09,0.18-0.21,0.35-0.33,0.51
			C660.61,447.48,660.37,447.66,660.05,447.71z"/>
		<path class="st3" d="M694.42,536.22c0.39,0.73,0.65,0.11,0.95-0.09c0.43-4.74,0.34-9.47,0.05-14.21c0-2.65-0.06-5.3,0.04-7.95
			c0.05-1.23-0.58-1.43-1.52-1.48c0.73-1.56,1.33-1.31,1.82,0.14c0.36,1.06-0.35,2.31,0.54,3.29c0.31,0.31,0.27,0.62,0.01,0.94
			c-0.73,0.95-0.16,1.9,0,2.85c0,5.65,0.01,11.3,0.01,16.94c-0.31,0.22-0.61,0.43-1.39,0.98c3.6-0.29,6.78-0.67,9.85,0.43
			c-0.76,0.76-1.76,0.72-2.66,0.59c-1.49-0.21-2.39,0.34-2.88,1.71c-0.78-0.2-0.39-1.06-1.03-1.66c-0.04,0.93-2.28,0.47-0.96,2.14
			c-0.28,0.46-0.74,0.49-1.21,0.51c-0.56,0.02-1.12,0.15-1.68,0.02l-0.21,0c0,0-0.21,0-0.21,0c-0.59,0.21-1.52,1.47-1.42-0.46
			c0.35-0.73-0.13-1.05-0.69-1c-0.77,0.06-0.36,0.61-0.25,1.01c-0.53,3.47-1.88,0.76-2.92,0.39c-0.08-0.64-0.44-0.63-0.91-0.41
			c-0.1-0.94-1.69-1.95,0.13-2.79c0.63,0.48,1.24,0.84,1.52-0.33c-0.02-0.3,0.06-0.55,0.3-0.73c0.92,0.19,1.83,0.38,2.75,0.57
			c0.57,0.13,1.27,0.68,1.45-0.45c-0.17-0.18-0.34-0.35-0.51-0.53C693.5,535.84,693.86,535.79,694.42,536.22z"/>
		<path class="st3" d="M662.36,416.59c0.22,0.56,0.44,1.11,0.66,1.67c-1.74-0.07-1.08,2.03-2.19,2.43c-0.83,0.3-1.76,0.03-2.46-0.47
			c-0.9-0.65,0.03-1.27,0.28-1.8c0.77-1.6,1.15-3.24,0.75-4.99c-0.4-1.8,0.57-3.33,1.01-4.93c0.22-0.82,1.84-0.03,2.36-1.05
			c0.62,0.32,0.29,0.97,0.47,1.45c0.48,1.27,0.92,2.53-0.98,3.32c-1.06,0.44-1.12,1.6-0.36,2.59
			C662.35,415.33,662.09,416.02,662.36,416.59z"/>
		<path class="st3" d="M651.11,465.09c0.24-0.97,0.79-1.79,0.14-2.96c-0.46-0.83,0.01-1.88,1.45-1.46c1.1,0.32,2.31,0.06,3.36,0.71
			c0.48,0.3,0.65-0.12,0.7-0.54c1.07,0.43,2.34,0.15,3.32,0.93l0.01-0.01c0.22,0.28,0.27,0.59,0.15,0.93
			c-0.2,0.27-0.49,0.41-0.8,0.5c-0.29,0.08-0.59,0.15-0.87,0.25c-0.4,0.3-0.6,0.76-0.83,1.18c-0.29,0.55-0.13,1.15-0.21,1.73
			c-1.12,2.06-1.31,2.09-2.95,0.66c-0.27-0.24-0.26-0.94-0.99-0.54C651.73,467.5,651.52,467.36,651.11,465.09z"/>
		<path class="st3" d="M651.11,465.09c0.41,0.73,0.64,1.59,1.68,2.14c-0.12-0.95,0.11-1.62,1.05-1.9c1.46-0.42,0.48,0.88,0.91,1.28
			c1.3,1.21,2,0.96,2.5-0.61c0.34-0.37,0.75-0.39,1.2-0.26c0.19,0.1,0.33,0.25,0.39,0.46c0.08,1.17-0.76,1.77-1.49,2.45
			c-0.32,0.49-0.1,1.14-0.48,1.6c-0.51,0.55-0.72-0.8-1.24-0.19c-0.54,0.11-1.12,0.07-1.62,0.35c-0.19,0.05-0.38,0.05-0.57,0
			c-0.38-0.45-0.97-0.64-1.37-1.06c-0.01-1.11-0.35-2.07-1.26-2.78C649.95,465.89,649.93,465.37,651.11,465.09z"/>
		<path class="st3" d="M699.25,540.35c-0.58-2.12-0.06-3.02,2.32-2.38c1.01,0.27,2.14,0.07,3.22,0.08c0.63,0.86,1.4,1.69,0.68,2.88
			c-0.49,0.82-0.94,1.97-1.7,0.21c-0.22-0.51-0.5-0.88-0.99-0.56C701.51,541.42,700.43,540.36,699.25,540.35z"/>
		<path class="st3" d="M653.43,470.24c0.2-0.01,0.4-0.02,0.6-0.03c0.59-0.23,1.13,0.11,1.7,0.14c0.35,0.11,0.7,0.24,1.02-0.07
			c0.26-0.63-0.47-1.27,0.01-1.91c0.43-0.37,0.8-0.18,1.16,0.13c0.53,0.75,0.67,1.79,1.67,2.18c0.34,0.4,1.39,0.45,0.71,1.38
			c-1.33-0.02-3.13-0.57-2.19,1.96c-0.49,0.34,0.33,1.48-0.86,1.4c-0.97-0.61-0.21-2.21-1.5-2.62c-0.34,0.17-0.39,0.53-0.53,0.82
			c-0.08,0.17-0.21,0.3-0.37,0.4c-0.47-0.15-0.48-1.68-1.41-0.48c-1.32-0.56,0.2-1.66-0.45-2.35c0-0.29,0-0.59,0-0.88
			C653.1,470.09,653.25,470.05,653.43,470.24z"/>
		<path class="st3" d="M688.75,535.29c-0.77-0.27-0.87,0.54-1.31,0.81c-0.48-0.13-0.38-1.34-1.29-0.7c-0.45-0.22-0.61-0.63-0.7-1.08
			c-0.07-0.47-0.05-0.94,0.07-1.4c0.26-0.54,0.5-1.1,1.28-0.89c0.16,0.72,0.56,1.43,1.21,1.55c0.55,0.1,0.76-0.61,0.74-1.19
			c0.59-0.26,1.17-0.56,1.85-0.42c0.3,0.15,0.6,0.31,0.9,0.46c0.24,1.41-0.65,2.11-1.7,2.7l-0.08,0.08
			C689.42,535.51,689.09,535.48,688.75,535.29z"/>
		<path class="st3" d="M654.86,474.03c0.03-0.18,0.05-0.37,0.08-0.55c0.7-0.01,0.92,0.51,1.15,1.02c0.35,0.97-0.69,1.98,0.07,2.94
			c0.76,0.79,0.22,1.77,0.38,2.65c-0.01,0.22-0.06,0.42-0.16,0.62c-0.35,0.48-0.76,0.79-1.39,0.49c-0.04-0.2-0.08-0.39-0.12-0.59
			c-0.64-0.24-0.46-1.16-1.13-1.37c-0.3-0.09-0.57-0.21-0.8-0.42c-0.11-0.2-0.08-0.39,0.06-0.56c0.34-0.45,2.27,0.14,0.93-1.41
			c-0.49-0.35-0.98-0.7-0.98-1.4C653.36,474.67,654.67,475.09,654.86,474.03z"/>
		<path class="st3" d="M660.08,461.77c-1.24,0.16-2.37-0.06-3.32-0.93c0.04-0.28,0.09-0.74,0.42-0.59c2.21,0.97,1.34-0.34,0.99-1.29
			c-0.01-0.47,0.17-0.89,0.34-1.32c0.55,0.12,1.1,0.19,1.63-0.07C660.3,458.98,661.55,460.39,660.08,461.77z"/>
		<path class="st3" d="M668.56,408.52c0.68,0.33,1.81-0.74,2.05,0.21c0.39,1.53,0.65,3.21-0.08,4.77c-0.63,1.35-1.67-0.14-2.46,0.28
			c0.3-0.3,0.6-0.59,0.9-0.89c0.75-0.22,0.45-1.15,1-1.5C671.4,409.5,669.25,409.37,668.56,408.52z"/>
		<path class="st3" d="M649.26,474.01c-0.53-0.28-0.83-0.81-0.82-1.31c0.01-0.78,0.38-1.51,1.16-1.84c0.51-0.21,1.09-0.2,1.51,0.24
			c0.85,0.88-0.69,1.23-0.47,1.98c-0.06,0.08-0.11,0.15-0.17,0.23C650.12,473.63,649.56,473.58,649.26,474.01z"/>
		<path class="st3" d="M652.97,448.6c0.97-0.4,1.51-1.62,2.78-1.45c0.21-0.13,0.4-0.11,0.58,0.06c-2.22,0.84-1.39,3.23-2.4,4.69
			c-0.46-0.29-0.58-1.08-1.35-0.91c-0.18,0.14-0.38,0.15-0.58,0.04c-0.24-0.7,0.35-0.91,0.76-1.11c0.58-0.28,0.48-0.57,0.19-0.96
			C652.96,448.85,652.96,448.72,652.97,448.6z"/>
		<path class="st3" d="M685.79,532.87c0.04,0.42,0.07,0.85,0.11,1.27c-0.15,0.42-0.49,0.43-0.85,0.39c-0.67-0.39-1.6-0.57-1.44-1.68
			c0.05-0.81,0.01-1.6-0.45-2.3c0.78-0.01,1.4,0.3,1.87,0.92c-0.36,0.47,0.01,0.6,0.36,0.74
			C685.66,532.33,685.79,532.56,685.79,532.87z"/>
		<path class="st3" d="M689.8,535.15c0.57-0.9,1.13-1.8,1.7-2.7c0.39,0.17,0.78,0.34,1.16,0.51c0.14,0.46,0.26,0.92-0.19,1.3
			C691.3,533.72,691.16,536.25,689.8,535.15z"/>
		<path class="st3" d="M652.52,474.02c-0.44,0.57-0.3,1.43-0.96,1.88c-0.23-0.3-0.64-0.27-0.92-0.48c-0.31-0.46-0.63-0.92-0.94-1.39
			c0.3-0.32,0.97-0.28,0.93-0.94c0,0,0.02-0.02,0.02-0.02c0.31,0,0.63,0,0.94,0C652.11,473.18,652.42,473.5,652.52,474.02z"/>
		<path class="st3" d="M652.52,474.02c-0.45-0.18-0.76-0.49-0.94-0.94c0.47-0.63,0.94-1.25,1.41-1.88c0.59,0.07,1.1,0.27,0.61,0.95
			c-0.35,0.48-0.42,0.9-0.16,1.4C653.14,473.71,652.83,473.86,652.52,474.02z"/>
		<path class="st3" d="M653,478.27c-0.01,0.15-0.02,0.31-0.02,0.46c0.09,0.81-0.36,0.74-0.89,0.55c-0.05-0.06-0.11-0.12-0.14-0.19
			c-0.43-1.05-2.34,0.81-2-0.74c0.26-1.16,1.82-0.54,2.83-0.18C652.86,478.2,652.93,478.23,653,478.27z"/>
		<path class="st3" d="M682.19,525.8c0.37-0.17,0.41-0.48,0.35-0.83c0.1-0.43,0.22-0.84,0.62-1.1c0.23,1.26,1.22,2.42,0.46,3.8
			c-0.59-0.25-1.29-0.32-1.64-0.98C681.88,526.35,681.92,526.05,682.19,525.8z"/>
		<path class="st3" d="M652.09,479.28c0.3-0.18,0.59-0.37,0.89-0.55c0.33,0,0.65,0.01,0.98,0.01c0.62,0.8-0.5,1.29-0.35,2.01
			c-0.2,0.47-0.1,1.09-0.69,1.36C652.38,481.24,652.12,480.29,652.09,479.28z"/>
		<path class="st3" d="M652.06,450.96c0.17,0.01,0.35,0.03,0.52,0.04c-0.31,0.77-2.55-0.01-1.48,1.86
			c-0.29,0.28-0.58,0.26-0.88,0.01c-1.63-1.85,0.52-1.77,1.23-2.43C651.81,450.42,651.9,450.73,652.06,450.96z"/>
		<path class="st3" d="M682.19,525.8c0.02,0.34,0.03,0.67,0.05,1.01c0.58,0.49,0.71,1.13,0.64,1.85c-0.09,0.37-0.24,0.64-0.69,0.45
			c-0.2-0.15-0.4-0.3-0.59-0.45C681.34,527.61,680.22,526.38,682.19,525.8z"/>
		<path class="st3" d="M669.98,411.4c-0.36,0.49,0.87,2.03-1,1.5c0.05-0.63-1.09-1.08-0.33-1.77
			C669.1,410.7,669.61,410.88,669.98,411.4z"/>
		<path class="st3" d="M707.57,542.04c-0.04,0.54-0.47,0.74-1.09,0.65c-0.36-0.05-0.61-0.31-0.41-0.6c0.28-0.4,0.52-1,1.16-0.94
			C707.6,541.2,707.59,541.58,707.57,542.04z"/>
		<path class="st3" d="M690.6,531.98c-0.55,0.43-1.19,0.46-1.85,0.42c-0.67-0.06-1.09-0.39-0.75-1.07c0.26-0.53,0.68-0.27,0.85,0.13
			C689.25,532.36,690.26,531.02,690.6,531.98z"/>
		<path class="st3" d="M652.06,450.96c-0.2-0.17-0.41-0.34-0.61-0.51c0.5-0.49,1-0.98,1.5-1.48
			C653.91,449.88,653.9,449.9,652.06,450.96z"/>
		<path class="st3" d="M653.93,505.09c0.53-0.29,1.06-0.6,1.61-0.87c0.09-0.05,0.27,0.08,0.64,0.21c-0.7,0.72-1.3,1.38-2.25,1.6
			C653.93,505.72,653.93,505.41,653.93,505.09z"/>
		<path class="st3" d="M694.38,541.35c0.4-0.5,0.92-0.55,1.5-0.42c0.3,0.22,0.75,0.36,0.44,0.88
			C695.69,541.58,694.53,543.57,694.38,541.35z"/>
		<path class="st3" d="M662.36,416.59c-1.63-0.23-0.19-1.21-0.44-1.78C661.92,415.44,664.44,415.44,662.36,416.59z"/>
		<path class="st3" d="M650.64,475.42c0.5-0.22,0.99-0.4,0.92,0.48c-0.53,0.26-0.81,1.46-1.59,0.67
			C649.46,476.06,650.22,475.71,650.64,475.42z"/>
		<path class="st3" d="M700.02,545.8c-0.04,0.35-0.31,0.66-0.56,0.46c-0.31-0.26-0.46-0.73-0.64-1.13
			c-0.02-0.04,0.31-0.34,0.44-0.32C699.78,544.91,699.98,545.31,700.02,545.8z"/>
		<path class="st3" d="M697.72,544.17c-0.18-0.47-1.41-0.48-0.69-1.28c0.43-0.48,1.04-0.05,1.34,0.36
			C698.9,544,698.29,544.11,697.72,544.17C697.72,544.18,697.72,544.17,697.72,544.17z"/>
		<path class="st3" d="M650.21,452.87c0.29,0,0.59-0.01,0.88-0.01c0.1,0.46,0.78,1.13-0.11,1.3
			C650.04,454.33,650.15,453.5,650.21,452.87z"/>
		<path class="st3" d="M660.52,516.4c-0.14,1.26-1.12,0.86-1.85,0.93C658.79,516.01,659.8,516.5,660.52,516.4z"/>
		<path class="st3" d="M652.95,475.46c0.33,0.47,0.65,0.93,0.98,1.4C652.98,476.82,652.06,476.77,652.95,475.46z"/>
		<path class="st3" d="M659.59,456.12c-0.56-0.08-1.45,0.31-1.58-0.37c-0.16-0.81,0.71-0.43,1.15-0.51
			C659.44,455.47,659.86,455.62,659.59,456.12z"/>
		<path class="st3" d="M696.31,541.82c-0.15-0.29-0.29-0.59-0.44-0.88c0.46-0.04,0.93-0.07,1.39-0.11
			C698.04,542.2,697.01,541.85,696.31,541.82z"/>
		<path class="st3" d="M659.59,456.12c-0.14-0.29-0.29-0.58-0.43-0.87c0.49-0.02,0.97-0.03,1.46-0.05c0.64,0.4,0.28,0.68-0.12,0.95
			C660.2,456.13,659.9,456.13,659.59,456.12z"/>
		<path class="st3" d="M682.71,528.59c-0.16-0.59-0.31-1.19-0.47-1.78c0.73-0.14,1.03,0.4,1.38,0.87c-0.35,0.21-0.46,0.54-0.47,0.93
			C683,528.82,682.85,528.82,682.71,528.59z"/>
		<path class="st3" d="M685.79,532.87c-0.11-0.18-0.22-0.35-0.33-0.53c-0.15-0.07-0.2-0.14-0.16-0.23c0.04-0.09,0.09-0.13,0.13-0.13
			c0.48-0.14,0.53-1,1.19-0.75c0.14,0.05,0.12,0.52,0.18,0.8C686.46,532.32,686.13,532.59,685.79,532.87z"/>
		<path class="st3" d="M650.63,473.1c0.54,1.16-0.37,0.87-0.93,0.94c-0.14-0.02-0.29-0.03-0.43-0.03
			C649.28,473.05,649.95,473.07,650.63,473.1z"/>
		<path class="st3" d="M692.47,534.25c0.06-0.43,0.13-0.86,0.19-1.3c0.6-0.07,0.83-0.44,0.79-1.01
			C694.64,533.35,692.91,533.53,692.47,534.25z"/>
		<path class="st3" d="M668.98,405.32c0.32,0.13,0.63,0.27,0.95,0.4c0.38,0.05,0.75,0.13,0.96,0.51c-0.37,0.45-0.83,0.64-1.41,0.48
			C669.31,406.25,669.14,405.78,668.98,405.32z"/>
		<path class="st3" d="M652.06,500.39c0.39,0.01,0.74,0.09,0.95,0.46c-0.1,0.32-0.07,0.86-0.59,0.68
			C651.91,501.36,652.1,500.81,652.06,500.39z"/>
		<path class="st3" d="M652.05,486.28c0.01-0.45,0.02-0.9,0.03-1.35c0.39,0.02,0.79,0.07,0.84,0.57
			C652.99,486.11,652.53,486.22,652.05,486.28z"/>
		<path class="st3" d="M685.43,531.99c-0.02,0.12-0.02,0.24,0.03,0.35c-0.44-0.02-1.03,0.19-1.19-0.39
			c-0.17-0.63,0.41-0.45,0.75-0.49C685.16,531.64,685.3,531.81,685.43,531.99z"/>
		<path class="st3" d="M682.71,528.59c0.15,0.01,0.3,0.02,0.45,0.01c1.25,1.77-0.7,0.71-0.99,1.13c0.01-0.21,0.02-0.41,0.03-0.62
			C682.36,528.93,682.54,528.76,682.71,528.59z"/>
		<path class="st3" d="M658.51,457.65c0.17,0.51,0.21,0.99-0.34,1.32C657.32,458.28,657.9,457.96,658.51,457.65z"/>
		<path class="st3" d="M683.17,523.87c-0.07,0.44-0.15,0.88-0.62,1.1c-0.4-0.23-0.49-0.59-0.26-0.94
			C682.47,523.74,682.78,523.42,683.17,523.87z"/>
		<path class="st3" d="M652.92,482.1c0.12-0.51-0.04-1.11,0.52-1.46c0.22,0.83,0.79,1.73-0.43,2.29c0,0,0,0.03,0,0.03
			C652.98,482.67,652.95,482.39,652.92,482.1z"/>
		<path class="st4" d="M670.46,501.31c-0.17,0.17-0.35,0.34-0.52,0.51c-1.35,0.04-2.09-1.25-3.3-1.5c-0.08-0.02-0.42-0.62-0.37,0.06
			c0.01,0.2,0.22,0.4,0.26,0.64c0.01,0.22-0.02,0.43-0.1,0.63c-0.17,0.31-0.44,0.43-0.78,0.46c-0.21-0.01-0.41-0.05-0.61-0.11
			c-0.63-0.3-1.45,0.35-1.99-0.39c-0.34-0.69-0.32-1.47-0.57-2.18c-0.3-1.28,0.67-3.25-2.09-3.1c-0.93,0.05-0.94-1.24-0.38-2.04
			c0.36-0.5,1.15-0.44,1.51-1.01c0.09-0.2,0.19-0.4,0.29-0.6c0.88-1.43,1.83-1.81,2.89-0.17c0.78,1.45,1.54,0.38,2.23-0.06
			c0.68-0.43,1.32-0.7,2.14-0.93c2.94-0.84,2.4,2.06,2.15,2.46c-0.92,1.53-0.33,2.99-0.26,4.43
			C671.03,499.47,670.29,500.29,670.46,501.31z"/>
		<path class="st3" d="M664.71,492.5c-1.39-1.2-2.24-0.76-2.71,0.87c-0.46-0.2-0.69-0.6-0.87-1.04c-0.19-0.57-0.24-1.14-0.06-1.73
			c0.1-0.21,0.24-0.4,0.41-0.56c0.46-0.35,0.91-0.69,1.37-1.04c0.48,0.35,0.95,0.7,1.42,1.05l-0.01-0.01
			C665.11,490.74,664.67,491.67,664.71,492.5z"/>
		<path class="st3" d="M657.22,464.59c0.32-0.62,0.64-1.24,0.96-1.86c0.35,0.38,0.73,0.67,1.29,0.56c0.28-0.05,0.56-0.08,0.83-0.18
			c0.24-0.15,0.45-0.35,0.72-0.44c0.93-0.28,0.63-1.58,1.74-1.96c0.03,1.41,0.94,2.33,1.99,2.93c1.82,1.04,1.19,1.92,0.06,2.91
			c-0.47-0.19-0.93-0.44-1.43-0.09c-0.66-0.54-1.57-0.47-2.29-1.02c-0.68-0.52-1.63-0.63-2.01,0.58c-0.12,0.22-0.25,0.22-0.39,0.01
			l-0.02-0.02C658.23,465.49,657.57,465.2,657.22,464.59z"/>
		<path class="st3" d="M656.31,480.55c0-0.08,0-0.17-0.01-0.25c0.01-0.79-0.06-1.6,0.61-2.2c0.44-0.19,0.87-0.11,1.31-0.02
			c0.32,0.05,0.64,0.14,0.94,0.25c0.44,0.14,0.62,0.57,0.93,0.85c1.22,0.25,1.64,1.36,2.19,2.23c0.51,0.81-0.01,1.13-0.86,0.92
			c-0.21,0-0.39-0.07-0.54-0.2c-0.08-0.18-0.16-0.36-0.23-0.55c-0.48-0.52-1.24-0.38-1.75-0.74c0.03,0.02,0.04,0.04,0.07,0.06
			c0.56,0.41,1.56,0.09,1.7,1.1c-0.29,1.01-1.44,0.81-2,1.43c-0.85-0.05-1.49,0.26-2,0.98c-0.43,0.61-1.1,0.55-1.68,0.19
			c-0.77-0.48-0.37-1.07-0.09-1.63c0.35-0.22,0.74-0.16,1.12-0.19c0.37-0.08,0.57-0.33,0.68-0.67c0.1-0.48-0.18-0.86-0.34-1.27
			C656.33,480.74,656.32,480.64,656.31,480.55z"/>
		<path class="st3" d="M660.58,446.8c0.35-1.23,1.08-1.95,2.44-1.87c-0.08,0.95,1.55,0.23,1.3,1.34c-0.36,1.62-1.62,2.73-2.32,4.17
			c-0.22,0.45-0.63,1.07-1.27,0.68c-0.48-0.29-0.3-0.95,0.01-1.25c1.3-1.26-0.54-1.42-0.7-2.15c0.15-0.18,0.29-0.35,0.44-0.53
			C660.99,447.17,660.69,446.96,660.58,446.8z"/>
		<path class="st3" d="M666.11,430.76c0.63-0.33,1.94-0.19,1.05-1.54c0.8-0.04,1.03,1.37,2.18,0.71c0.65-0.37,0.67,0.6,0.53,0.86
			c-0.7,1.27-0.58,3.03-2.16,3.79c-0.35,0.16-0.57-0.02-0.75-0.3c-0.12-0.56-0.01-1.14-0.09-1.71
			C667.26,431.7,665.78,431.61,666.11,430.76z"/>
		<path class="st3" d="M663.81,443.4c-0.2-0.22-0.39-0.62-0.6-0.63c-1.02-0.02-1.34-0.56-1.25-1.47c0.12-1.17,1-1.17,1.86-1.2
			c0.2-0.18,0.38-0.15,0.54,0.06c0.01,0.15-0.02,0.3-0.07,0.44c-0.27,0.63,0.07,0.66,0.55,0.55
			C667.91,443.48,663.64,442.42,663.81,443.4z"/>
		<path class="st3" d="M656.78,444.75c0.19,0.12,0.4,0.36,0.57,0.34c2.56-0.31,2.65-0.2,1.76,2.54c-0.45,0.65-0.93,0.72-1.43,0.06
			C657.13,446.78,655.13,446.33,656.78,444.75z"/>
		<path class="st3" d="M656.8,486.33c0.53-0.93,1.09-0.46,1.62-0.02c0.46,0.38,0.85,0.86,1.52,0.81c0.44,0.21,0.65,0.58,0.67,1.06
			c-0.18,0.15-0.35,0.29-0.53,0.44c-1.86,1.12-2.32-0.7-3.24-1.54C657.12,486.81,657.05,486.57,656.8,486.33z"/>
		<path class="st3" d="M664.37,440.17c-0.18-0.02-0.36-0.04-0.54-0.06c0.34-0.58,0.53-1.2,0.48-1.88c0.47-0.31,0.93-0.34,1.37,0.04
			c0.13,0.07,0.36,0.12,0.39,0.22c0.29,1.09,2.57,0.44,1.98,1.6c-0.7,1.38-1.55-0.32-2.36-0.62
			C665.02,439.21,664.87,440.04,664.37,440.17z"/>
		<path class="st3" d="M665.69,438.26c-0.46-0.01-0.92-0.02-1.37-0.04c0.66-1.34-0.21-3.19,1.4-4.22c0.43-0.24,0.89-0.15,1.34-0.09
			c0.22,0.22,0.43,0.44,0.65,0.66C666.99,435.79,664.05,435.77,665.69,438.26z"/>
		<path class="st3" d="M661.26,482.01c0.1,0.09,0.15,0.19,0.17,0.32c0.03,1.61,0.39,3.47-2.3,3.02c-0.15-0.63,0.31-1.06,0.52-1.57
			C659.99,483.02,660.39,482.3,661.26,482.01z"/>
		<path class="st3" d="M656.78,444.75c-1.16,1.43,1.26,1.75,0.91,2.93c-0.45-0.15-0.91-0.31-1.36-0.46
			c-0.19-0.02-0.39-0.04-0.58-0.06c-0.6-0.89-0.11-1.79,0.14-2.59C656.16,443.66,656.59,444.1,656.78,444.75z"/>
		<path class="st3" d="M659.15,478.75c-0.29-0.02-0.59-0.04-0.88-0.06c-1.01-1.22-0.87-2.47-0.09-3.73
			c0.43,0.74,1.27,0.91,1.92,1.35C659.89,477.17,660.19,478.22,659.15,478.75z"/>
		<path class="st3" d="M659.15,478.75c0.85-0.6-0.38-2.02,0.95-2.43c0.64,0.52,1.27,1.04,2.18,1.79c-1.02,0.44-2.21-0.19-2.17,1.08
			C659.78,479.04,659.47,478.9,659.15,478.75z"/>
		<path class="st3" d="M657.73,468.89c1.05,0.21,1.97,1.34,3.17,0.43c0.19,0.46,0.37,0.92,0.56,1.39c-0.61,0.84-1.59-0.34-2.21,0.41
			C658.1,470.81,657.94,469.83,657.73,468.89z"/>
		<path class="st3" d="M658.18,474.96c0.03,1.24,0.06,2.49,0.09,3.73c-0.38-0.16-0.76-0.32-1.14-0.49
			c-0.55-0.72-0.49-1.52-0.26-2.33c0.1-0.22,0.26-0.38,0.47-0.49c0.26-0.46,0.52-0.91,0.77-1.37
			C658.13,474.34,658.16,474.65,658.18,474.96z"/>
		<path class="st3" d="M670.88,406.23c-0.4-0.01-0.77-0.09-0.96-0.51c1.22-0.43,0.67-1.77,1.64-3.09
			C671.95,404.32,671.97,405.34,670.88,406.23z"/>
		<path class="st3" d="M659.24,471.11c0.32-2.37,1.58,0.3,2.21-0.41c0.04,0.81-0.08,1.49-1.15,1.37
			C660.29,471.38,659.76,471.24,659.24,471.11z"/>
		<path class="st3" d="M664.32,446.26c-0.22-0.65-1.91,0.13-1.3-1.34c0.1-0.04,0.21-0.08,0.32-0.11
			C665.15,445.35,665.15,445.35,664.32,446.26z"/>
		<path class="st3" d="M661.47,490.05c-0.03,0.2-0.07,0.41-0.1,0.61c-0.48,0.74-1.18,1.01-2.03,0.92c-1.23-1.19,0.29-1.12,0.72-1.55
			c0.13-0.11,0.26-0.23,0.39-0.34C660.79,489.81,661.13,489.93,661.47,490.05z"/>
		<path class="st3" d="M663.36,466.46c0.15-0.34,0.26-0.93,0.47-0.97c0.75-0.14,0.64,0.69,0.97,1.06
			C664.29,466.97,663.78,467.43,663.36,466.46z"/>
		<path class="st3" d="M660.63,488.18c-0.49-0.18-0.59-0.62-0.67-1.05c0.04-0.11,0.06-0.22,0.06-0.33c0.56,0.14,1.2,0.22,1.28,0.94
			C661.31,487.86,660.86,488.03,660.63,488.18z"/>
		<path class="st3" d="M661.01,462.67c-0.02,0.41-0.09,0.8-0.54,0.96c-0.25-0.24-0.69-0.39-0.43-0.88c0.01-0.33,0.03-0.66,0.04-0.99
			C660.39,462.06,660.7,462.37,661.01,462.67z"/>
		<path class="st3" d="M664.84,441.16c-0.33,0.28-0.69,1.01-1.04,0.7c-0.53-0.48,0.02-0.93,0.49-1.25
			C664.48,440.79,664.66,440.98,664.84,441.16z"/>
		<path class="st3" d="M679.07,514.45c0.26,2.53-1.59,3.42-3.39,4.36c-0.49,0.22-0.24,0.99-0.84,1.12
			c-0.93,0.18-1.17,1.34-2.11,1.51c-0.41,0.03-0.77-0.08-1.02-0.43c-0.11-0.24-0.12-0.49-0.11-0.73c-0.31-0.27-0.34,0.14-0.5,0.22
			c-1.09,1.3-1.49,0.48-1.8-0.59c-0.03-0.22,0.03-0.42,0.15-0.6c0.03-0.34,0.54-0.66,0.05-1.02c-0.1-0.1-0.13-0.21-0.11-0.32
			c0.03-0.11,0.06-0.16,0.09-0.16l0.01-0.01c0.2-1,0.65-1.95,1.8-1.6c1.45,0.45,2.33-0.19,3.31-1.03c0.76-0.65,1.63-1.2,2.72-1.16
			C677.93,514.04,678.49,514.25,679.07,514.45z"/>
		<path class="st3" d="M679.07,514.45c-0.74,0-1.47,0-2.21,0c-1.49-1.16-3.05-0.91-4.58-0.15c-0.83,0.41-1.53,1.11-2.55,1.05
			c-1.24-0.37-1.06-2.44-2.74-2.28c-1.02,0.11-0.68,2.06-2.13,1.58c0.15-0.84,0.86-1.87-0.73-2.1c0.13-2.23,1.62-2.62,3.46-2.54
			c0.8,0.58,1.57,1.2,2.46,1.65c1.82-1.37,3.81-0.62,5.69-0.29C677.37,511.66,677.46,513.94,679.07,514.45z"/>
		<path class="st3" d="M669.56,515.06c0.88,0.03,1.42-0.6,1.9-1.15c1.54-1.75,3.44-0.44,5.15-0.66c0.42-0.05,0.36,0.73,0.25,1.18
			c-0.79,0.47-1.76,0.78-2.35,1.43c-0.95,1.06-1.71,1.83-3.19,0.81c-1.17-0.8-1.21,0.73-1.83,1.1c-0.32-0.63-0.96-0.28-1.42-0.47
			C667.46,514.95,667.47,514.94,669.56,515.06z"/>
		<path class="st3" d="M660.05,490.03c-0.07,0.5-1.38,0.59-0.45,1.41c0.86-0.25,1.11,0.71,1.75,0.89c0.44,0.21,0.54,0.63,0.65,1.05
			c0,0,0.01-0.02,0.01-0.02c-0.04,0.06-0.08,0.18-0.13,0.18c-1.9,0.19-2.23,1.56-2.33,3.1c-1.55-0.29-3.17-0.4-4.23-1.82
			c0.02-0.41,0.15-0.76,0.49-1.02c0.92-0.02,1.07-0.81,1.42-1.41c0.81-0.79,0.04-1.06-0.47-1.41c0.08-1.23-2.36-1.52-1.48-2.48
			c1.12-1.21,1.61,0.82,2.47,1.27C658.5,490.16,659.29,489.97,660.05,490.03z"/>
		<path class="st3" d="M667.57,510.26c-1.27,0.58-2.87,0.65-3.44,2.27c-0.22,0.01-0.44,0.03-0.67,0.04
			c-0.82-0.95,0.76-1.95-0.05-2.9c-0.67-1.76,0.9-1.77,1.81-2.29c1.32,0.2,2.54-0.12,3.75-0.62c0.46,0.21,0.7,0.57,0.78,1.05
			C669.61,509.16,668.7,509.81,667.57,510.26z"/>
		<path class="st3" d="M668.96,507c-0.08,0-0.2-0.02-0.22,0.01c-0.99,1.86-2.22,1.44-3.52,0.38c-0.01-0.12-0.01-0.23-0.01-0.35
			c-0.53-2.07-0.36-2.27,1.84-2.09c0.75,0.48,1.76,0.39,2.41,1.1l0,0.01C669.8,506.63,669.81,507.04,668.96,507z"/>
		<path class="st3" d="M659.56,496.64c0.18-0.94-0.25-1.73-0.75-2.57c1.16-0.26,2.18-0.48,3.2-0.71c0.14,0.7,0.5,1.56-0.85,1.08
			c-0.79-0.28-0.93,0.2-0.98,0.81c-0.04,0.45,0.16,0.89,0.59,0.77c3.16-0.89,1.9,1.44,2.05,2.75c0.03,0.23,0.11,0.45,0.17,0.67
			c-0.66,0.24-0.74-0.17-0.82-0.67c-0.09-0.56,0.31-1.18-0.22-1.68c-0.31,0.17-0.63,0.34-0.94,0.51c-0.59-0.14-0.88-0.73-1.42-0.93
			L659.56,496.64z"/>
		<path class="st3" d="M669.56,515.06c-1.66-0.02-1.75,1-1.49,2.25c-0.86,0.25-0.34-0.93-0.96-0.93c-0.27-0.25-0.47-0.54-0.58-0.89
			c-0.18-1.2-0.26-2.38,0.66-3.37C668.17,512.95,669.64,513.37,669.56,515.06z"/>
		<path class="st3" d="M670.97,525.34c-0.56,0.56-0.6,1.62-1.75,1.79c-0.4-0.88-0.29-1.91-0.97-2.72c-0.61-0.72,0-1.07,0.78-1.04
			C670.24,523.46,671.21,523.8,670.97,525.34z"/>
		<path class="st3" d="M683.89,535.8c-1.17-0.19-2.33-0.41-3.16-1.38c0-0.31,0.09-0.6,0.24-0.86c0.42-0.67,0.66-1.44,1.17-2.06
			c0.34,0.41,0.68,0.82,1.02,1.23c0.01,1.08,1.67,1.42,1.2,2.71C684.28,535.65,684.12,535.77,683.89,535.8z"/>
		<path class="st3" d="M661.94,497.07c0.11-0.38,0.26-0.83,0.46-0.06c0.21,0.8-0.45,1.81,0.59,2.41c0.71,0.63,0.15,1.53,0.46,2.25
			c0.27,0.29,0.37,0.64,0.36,1.02c-0.09,0.5-0.18,1-0.85,1.01c-0.65-0.31,0.22-1.25-0.62-1.48c-0.65-0.79,0-2.19-1.28-2.68
			C661.72,498.85,662.1,498.06,661.94,497.07z"/>
		<path class="st3" d="M667.13,505.57c-1.8-1.02-1.95,0.11-1.91,1.47c-0.39-0.05-0.77-0.11-0.9-0.57c-0.06-1.29-0.94-2.49-0.4-3.85
			c0.26-0.63,0.68-1.04,1.42-0.96l-0.08,0.09c0.18,0.23,0.36,0.45,0.43,0.74c0.11,0.54,0.21,1.09,0.73,1.42
			c0.39,0.3,0.82,0.57,0.92,1.11C667.34,505.23,667.27,505.41,667.13,505.57z"/>
		<path class="st3" d="M674.68,519.67c0.33-0.29,0.67-0.58,1-0.87c-0.16,1.41,0.13,3-1.46,3.87c-0.44,0.36-0.8,0.86-1.47,0.8
			c-0.47-0.18-0.82-0.47-0.87-1.01C672.82,521.53,673.96,520.81,674.68,519.67z"/>
		<path class="st3" d="M667.18,512.13c-0.05,1.12-0.1,2.24-0.15,3.36c-0.29,0.32-0.51,0.7-0.87,0.95c-0.43-0.6-0.87-1.2-1.3-1.8
			C666.15,514.28,665.19,511.85,667.18,512.13z"/>
		<path class="st3" d="M660.8,508.26c-0.09-0.3-0.26-0.57-0.19-0.72c0.41-0.88-0.68-2.31,0.99-2.72c0.33-0.08,0.66-0.05,0.67,0.37
			C662.28,506.42,662.22,507.62,660.8,508.26z"/>
		<path class="st3" d="M676.57,528.54c-0.32,0.61-0.69,0.11-1.03,0.04c-0.86-0.55-1.5-1.18-0.88-2.3c0.92,0.31,1.82,0.73,2.76,0.91
			c0.9,0.18,1.07,0.68,1.02,1.43C677.78,529.1,677.22,527.81,676.57,528.54z"/>
		<path class="st3" d="M691.61,540.9c-0.7,0.03-1.65,0.15-1.26-0.95c0.26-0.72,1.2-1.09,1.97-0.78c0.85,0.34,1.19,1.02,0.22,1.72
			C692.23,540.41,691.92,540.7,691.61,540.9z"/>
		<path class="st3" d="M653.01,482.93c0.8-0.64,0.45-1.5,0.43-2.29c-0.58-0.84,0.63-1.19,0.52-1.9c2.26-0.33,0.23,1.44,0.92,1.88
			c-1.2,0.14-0.84,1.09-0.94,1.81C653.85,483.01,653.79,483.64,653.01,482.93z"/>
		<path class="st3" d="M681.26,534c-0.18,0.14-0.35,0.28-0.53,0.42c-0.94,0.01-1.46-0.88-2.3-1.08c-0.28-0.31-0.28-0.62,0.01-0.92
			c0.99,0.15,2.16,1.12,2.72-0.62C681.8,532.51,681.51,533.25,681.26,534z"/>
		<path class="st3" d="M664.32,502.71c-0.48,1.25,0.93,2.51-0.01,3.76c-0.76-0.77-1.13-1.73-1.36-2.76
			c0.16-0.29,0.32-0.58,0.47-0.87C663.68,502.47,663.99,502.46,664.32,502.71z"/>
		<path class="st3" d="M674.68,519.67c0.01,1.88-1.41,2.31-2.8,2.79c-0.04-0.12-0.06-0.25-0.07-0.38c-0.29-0.93,0.74-0.57,0.97-0.99
			c0.43-0.35,0.67-0.8,0.83-1.34C673.86,518.86,674.28,519.16,674.68,519.67z"/>
		<path class="st3" d="M661.63,504.24c-1.69-0.62-2.25-1.29-1.88-2.69C660.65,502.13,660.96,502.95,661.63,504.24z"/>
		<path class="st3" d="M684.01,535.36c0.14-0.59-0.08-0.9-0.62-1.23c-0.4-0.25-1-0.81-0.23-1.41c0.13,0.09,0.28,0.13,0.44,0.13
			c0.29,0.66,1.28,0.51,1.48,1.28c0.14,0.23,0.19,0.47,0.16,0.73C685,535.45,684.58,535.58,684.01,535.36z"/>
		<path class="st3" d="M672.75,528.18c-1.25-0.28-0.98-1.09-0.67-1.91c0.51-1.33,1.02,0.31,1.53,0c0.07,0.07,0.13,0.15,0.2,0.22
			c0.01,0.54-0.29,0.94-0.59,1.34C673.1,527.99,672.94,528.11,672.75,528.18z"/>
		<path class="st3" d="M670.97,525.34c-0.05-1.25-1.39-1.22-1.94-1.98c0.31-0.43,0.73-1.11,1.19-0.49
			C670.71,523.53,672,524.14,670.97,525.34z"/>
		<path class="st3" d="M669.51,519.68c0.54-0.12,0.22,1.93,1.27,0.5c0.08,0.03,0.17,0.06,0.25,0.09c0.18,0.21,0.27,0.46,0.33,0.72
			c0.12,0.34,0.21,0.68,0.03,1.03c-1.04,0.27-1.68-0.49-2.44-0.95C668.58,520.38,668.81,519.94,669.51,519.68z"/>
		<path class="st3" d="M656.09,498.29c-0.26,0.46-0.56,0.93-1.17,0.96c-0.41,0.02-0.48-0.35-0.43-0.66c0.1-0.61,0.49-0.95,1.12-0.94
			C656,497.65,656.12,497.91,656.09,498.29z"/>
		<path class="st3" d="M672.75,528.18c0.01-0.16,0.01-0.33,0.02-0.49c0.47-0.18,0.99-0.02,1.46-0.24c0.68,0.24,0.84,0.66,0.44,1.27
			C673.5,530.41,673.23,528.93,672.75,528.18z"/>
		<path class="st3" d="M661.26,482.01c-0.45,0.67-0.59,1.62-1.61,1.78c-0.33-0.12-0.66-0.24-0.98-0.36
			c-0.09-1.63,1.56-0.65,2.07-1.38l0.05,0.01C660.95,482.04,661.1,482.03,661.26,482.01z"/>
		<path class="st3" d="M656.76,490.97c0.97-0.65,1.38-0.21,1.55,0.77c0.21,1.2-0.47,0.87-1.09,0.64
			C657.08,491.91,656.92,491.44,656.76,490.97z"/>
		<path class="st3" d="M688.75,535.29c0.32-0.02,0.65-0.04,0.97-0.07c0,0.6,0.01,1.21,0.01,1.81c0,0.3,0.01,0.6,0.01,0.9
			c0.1,0.44,0,0.75-0.51,0.74c-0.51-0.01-0.61-0.32-0.48-0.76C689,537.04,689.6,536.17,688.75,535.29z"/>
		<path class="st3" d="M661.06,499.54c1.98,0.15,1.18,1.63,1.28,2.68C661.2,501.67,661.54,500.4,661.06,499.54z"/>
		<path class="st3" d="M657.19,482.56c-0.15,0.46-0.4,0.81-0.92,0.89c-0.61-0.55-0.92-1.29-1.3-1.99c0.01-0.09,0.02-0.17,0.04-0.26
			c0.44-0.22,0.88-0.44,1.31-0.66c0,0,0.03,0.05,0.03,0.05C656.76,481.2,656.97,481.88,657.19,482.56z"/>
		<path class="st3" d="M674.67,528.73c-0.01-0.62-0.26-1.02-0.94-1.02c-0.4-0.49,0.3-0.9,0.1-1.38c0,0-0.21-0.05-0.21-0.05
			c0.35-0.36,0.69-0.5,1.04,0c0.29,0.77,0.59,1.53,0.88,2.3C675.25,528.63,674.96,528.68,674.67,528.73z"/>
		<path class="st3" d="M676.57,528.54c0.71-1.85,1.23,0.23,1.86,0.09C677.7,530.79,677.22,527.79,676.57,528.54z"/>
		<path class="st3" d="M684.01,535.36c0.4-0.04,0.82-0.03,1.08-0.43c0.97-0.49,0.55,0.62,0.93,0.8c0.04,0.18,0.05,0.37,0.04,0.56
			c-0.92,0.68-1.49-0.09-2.16-0.5C683.95,535.66,683.99,535.51,684.01,535.36z"/>
		<path class="st3" d="M654.96,481.46c0.98,0.31,1.12,1.16,1.3,1.99c-0.46-0.16-0.91-0.32-1.37-0.48
			C654.92,482.47,654.94,481.97,654.96,481.46z"/>
		<path class="st3" d="M687.78,540.89c-0.03-0.59,0.02-1.11,0.82-1.06c0.3,0.02,0.67-0.02,0.76,0.35c0.15,0.57-0.53,0.69-0.67,1.12
			C688.39,541.16,688.08,541.02,687.78,540.89z"/>
		<path class="st3" d="M669.51,519.68c-0.18,0.46-0.36,0.93-0.55,1.39c-0.3-0.3-0.6-0.6-0.91-0.9c-0.28-0.35-0.24-0.69,0.06-1.01
			c0.44,0.05,0.89,0.1,1.33,0.15C669.43,519.44,669.45,519.56,669.51,519.68z"/>
		<path class="st3" d="M688.75,537.91c0.32,0.58,0.65,0.55,0.99,0.02c0.38,0.21,1.04,0.53,0.26,0.86c-0.72,0.31-1.84,0.84-2.09-0.7
			C688.2,538.03,688.47,537.97,688.75,537.91z"/>
		<path class="st3" d="M667.33,522.49c-0.08,0.41-0.4,0.41-0.69,0.43c-0.39,0.02-0.81-0.05-0.71-0.56c0.03-0.14,0.48-0.26,0.75-0.29
			C666.96,522.06,667.29,522.11,667.33,522.49z"/>
		<path class="st3" d="M681.26,534c-0.03-0.73-0.07-1.46-0.1-2.19c0.21-0.47,0.6-0.39,0.98-0.31
			C682.3,532.49,681.86,533.27,681.26,534z"/>
		<path class="st3" d="M663.41,509.68c1.2,0.95-0.18,1.94,0.05,2.9c-0.43,0.05-0.81-0.01-1.05-0.42
			C663.21,511.52,663.35,510.61,663.41,509.68z"/>
		<path class="st3" d="M672.75,523.47c0.27-0.68,0.93-0.63,1.47-0.8c0.14,0.42,0.28,0.84,0.42,1.27
			C674.03,523.7,673.29,524,672.75,523.47z"/>
		<path class="st3" d="M668.11,519.16c-0.02,0.34-0.04,0.67-0.06,1.01c-0.95,0.15-1.1-0.86-1.78-1.18
			C666.99,518.49,667.57,518.69,668.11,519.16z"/>
		<path class="st3" d="M659.58,496.65c0.69-0.02,1.16,0.3,1.42,0.93C659.68,498.56,660.12,496.87,659.58,496.65z"/>
		<path class="st3" d="M671.4,522.02c-0.16-0.31-0.32-0.62-0.48-0.93c0.23-0.27,0.36-0.71,0.86-0.46c0.17,0.48,0.59,0.45,0.98,0.46
			c-0.32,0.33-0.64,0.66-0.97,0.99C671.67,522.05,671.54,522.03,671.4,522.02z"/>
		<path class="st3" d="M686.57,535.33c1.01-0.56,0.79,0.28,0.87,0.77c-0.46,0.07-0.93,0.13-1.39,0.2c-0.06-0.09-0.12-0.17-0.17-0.26
			C685.86,535.56,686.13,535.36,686.57,535.33z"/>
		<path class="st3" d="M679.58,529.02c0.35,0.44,0.44,1.05,0.05,1.24c-0.73,0.34-0.72-0.2-0.5-0.7
			C679.21,529.35,679.41,529.2,679.58,529.02z"/>
		<path class="st3" d="M662.08,512.29c-0.5,0.08-0.64-0.18-0.55-0.5c0.07-0.26,0.27-0.61,0.47-0.67c0.46-0.13,0.35,0.33,0.41,0.58
			C662.49,512.06,662.37,512.28,662.08,512.29z"/>
		<path class="st3" d="M678.44,532.42c0,0.31-0.01,0.61-0.01,0.92c-0.42-0.08-1.11,0.46-1.2,0.01
			C677.06,532.58,677.8,532.44,678.44,532.42z"/>
		<path class="st3" d="M656.8,486.33c0.49-0.07,1.08-0.09,1.01,0.55c-0.06,0.53-0.61,0.21-0.96,0.19
			C656.84,486.83,656.82,486.58,656.8,486.33z"/>
		<path class="st3" d="M658.91,504.31c-0.12,0.04-0.33,0.18-0.47,0.12c-0.17-0.07-0.27-0.3-0.4-0.46c0.18-0.07,0.36-0.22,0.54-0.21
			C658.79,503.78,659,503.92,658.91,504.31z"/>
		<path class="st3" d="M655.82,493.8c0,0.41-0.08,0.8-0.49,1.02c-0.37-0.3-0.61-0.67-0.28-1.1
			C655.13,493.61,655.55,493.77,655.82,493.8z"/>
		<path class="st3" d="M666.16,516.44c0.01-0.57,0.21-0.97,0.87-0.95c0.03,0.3,0.05,0.6,0.08,0.9
			C666.8,516.53,666.5,516.82,666.16,516.44z"/>
		<path class="st3" d="M669.47,517.8c0,0.16,0.01,0.32,0.01,0.49C669.14,518.13,669.05,517.97,669.47,517.8z"/>
		<path class="st3" d="M665.25,502.81c0-0.35,0.01-0.71,0.01-1.06c0.31,0,0.62,0.01,0.93,0.01c1.2,0.15,2.11,1.13,3.35,1.17
			c0.69,0.12,0.52,0.88,0.92,1.22c0.38,0.63-0.09,0.78-0.53,0.94c-0.93,0.58-1.86,0.67-2.8,0.03c-0.32-0.33-0.64-0.66-0.96-0.99
			C665.74,503.76,665.6,503.21,665.25,502.81z"/>
		<path class="st3" d="M670.45,504.14c-0.38-0.34-0.76-0.67-1.14-1.01c-1.02-0.63-2.06-1.22-3.17-1.67
			c-0.09-0.29-0.09-0.67-0.28-0.86c-0.27-0.27-1.07-0.19-0.59-0.89c0.29-0.41,0.86-0.51,1.26-0.21c1.1,0.83,2.58,1.1,3.41,2.32
			C670.35,502.54,670.95,503.22,670.45,504.14z"/>
		<path class="st3" d="M667.57,510.26c0.65-0.77,1.3-1.54,1.95-2.32c1.12,0.18,0.53,0.92,0.48,1.49c0.01,0.74,0.02,1.48,0.04,2.22
			C668.93,511.7,667.67,512.02,667.57,510.26z"/>
		<path class="st3" d="M667.12,505.11c0.93-0.01,1.87-0.02,2.8-0.03c-0.15,0.32-0.3,0.64-0.45,0.96c-0.79-0.12-1.69,0.32-2.34-0.47
			C667.12,505.41,667.12,505.26,667.12,505.11z"/>
		<path class="st3" d="M670.01,509.43c-0.13-0.5,0.04-1.11-0.48-1.49c-0.19-0.31-0.37-0.63-0.56-0.94c0.4-0.2,0.49-0.56,0.51-0.96
			C670.3,507.07,671.08,508.11,670.01,509.43z"/>
		<path class="st3" d="M694.42,536.22c-0.45-0.17-0.79-0.07-0.98,0.4c-0.48-0.39-0.37-0.83,0.08-1.05
			C694.06,535.29,694.25,535.81,694.42,536.22z"/>
		<path class="st3" d="M693.94,537.15c0.37,0.06,0.57,0.36,0.32,0.59c-0.59,0.53-1.21,0.36-1.77-0.14
			C693,537.54,693.57,537.68,693.94,537.15z"/>
		<path class="st3" d="M658.25,437.93c0.13,0.89,0.28,1.78,0.37,2.68c0.05,0.54-0.28,0.94-0.78,1.01c-0.75,0.1-0.62-0.55-0.59-0.95
			C657.32,439.69,655.92,438.18,658.25,437.93z"/>
		<path class="st3" d="M667.05,433.92c-0.42,0.39-0.88,0.33-1.34,0.09c-0.45-0.26-0.9-0.53-1.38-0.8c0.32-1.04,1.49-0.37,1.92-1.06
			c0.45-0.25,0.64,0.1,0.86,0.37C667.48,433,667.33,433.46,667.05,433.92z"/>
		<path class="st3" d="M659.37,436.91c1.06-0.7,1.74-1.13,2.46-0.24c0.15,0.19,0.17,0.76,0.05,0.83
			C660.96,438.09,660.41,437.31,659.37,436.91z"/>
		<path class="st3" d="M657.54,432.92c1.13-0.24,1.79-1.11,2.78-0.48c0.12,0.07,0.16,0.57,0.09,0.61
			C659.57,433.54,658.72,433.51,657.54,432.92z"/>
		<path class="st3" d="M667.11,432.51c-0.29-0.12-0.57-0.25-0.86-0.37c0.18-0.48-1.87-0.73-0.15-1.38c0.21,0.39,0.44,0.77,0.95,0.83
			c0.31,0.04,0.76-0.47,0.91,0.08C668.12,432.27,667.29,432.11,667.11,432.51z"/>
		<path class="st3" d="M660.5,438.25c0.31,0.07,0.8,0,0.78,0.55c-0.02,0.38-0.39,0.41-0.69,0.41c-0.39,0-0.83-0.07-0.82-0.57
			C659.78,438.23,660.16,438.26,660.5,438.25z"/>
		<path class="st3" d="M659.24,434.92c0.15,0.07,0.33,0.17,0.51,0.26c-0.2,0.29-0.35,0.64-0.62,0.85c-0.29,0.22-0.6,0.02-0.63-0.32
			C658.46,435.27,658.81,435.08,659.24,434.92z"/>
		<path class="st3" d="M660.58,446.8c0.57-0.11,0.86,0.19,1,0.7c0.07,0.26-0.01,0.55-0.27,0.42c-0.32-0.15-0.55-0.49-0.82-0.74
			C660.53,447.06,660.56,446.93,660.58,446.8z"/>
		<path class="st3" d="M660.42,442.41c-0.16-0.27-0.32-0.43-0.35-0.61c-0.04-0.23,0.11-0.45,0.37-0.35
			c0.16,0.07,0.34,0.29,0.36,0.46C660.82,442.04,660.6,442.19,660.42,442.41z"/>
		<path class="st3" d="M658.62,431.03c-0.09,0.12-0.21,0.28-0.33,0.44c-0.15-0.12-0.42-0.24-0.41-0.35c0-0.17,0.16-0.41,0.32-0.49
			C658.49,430.47,658.55,430.74,658.62,431.03z"/>
		<path class="st3" d="M695.32,539.85c-0.52,0.05-0.96-0.17-0.91-0.57c0.11-0.95,0.95-1.1,1.71-1.2c0.46-0.06,1.08,0,0.97,0.63
			C696.91,539.66,695.82,539.4,695.32,539.85z"/>
		<path class="st3" d="M657.22,464.59c1-0.05,1.57,0.33,1.43,1.42c-0.46,0-0.93-0.01-1.39-0.01
			C657.09,465.54,656.47,465.08,657.22,464.59z"/>
		<path class="st3" d="M659.6,463.74c-1.22,0.72-1.26-0.23-1.42-1.01c0.35,0.03,0.71,0.06,1.06,0.09
			C659.48,463.08,659.62,463.38,659.6,463.74z"/>
		<path class="st3" d="M659.6,463.74c-0.31-0.23-0.43-0.54-0.36-0.92c0.27-0.02,0.53-0.05,0.8-0.07c0.14,0.29,0.28,0.59,0.43,0.88
			C660.18,463.67,659.89,463.7,659.6,463.74z"/>
		<path class="st3" d="M655.34,472.12c1.18-0.65,1.37,0.37,1.61,1.05c0.24,0.7,0.26,1.47,0.38,2.21c0,0-0.19,0.1-0.19,0.1
			c-0.2,0.09-0.38,0.06-0.55-0.08c-0.34-0.49-0.35-1.14-0.73-1.61C655.61,473.26,655.32,472.74,655.34,472.12z"/>
		<path class="st3" d="M655.34,472.12c0.6,0.3,0.58,0.98,0.89,1.46c-0.17,0.35,0.01,0.87-0.49,1.07c-0.27-0.39-0.53-0.78-0.8-1.17
			C654.89,472.97,654.91,472.48,655.34,472.12z"/>
		<path class="st3" d="M686.57,535.33c-0.23,0.24-0.46,0.47-0.69,0.71c-0.53-0.18-0.17-1-0.8-1.1c0-0.27,0-0.54,0-0.81
			c0.27,0.01,0.54,0.01,0.81,0.02C685.95,534.63,686.09,535.08,686.57,535.33z"/>
		<path class="st3" d="M655.74,474.65c0.16-0.36,0.33-0.71,0.49-1.07c0.21,0.58,0.42,1.16,0.63,1.73c0.19,1.05,0.51,2.15-1.04,2.46
			c-0.65,0.12-1.05-0.03-0.81-0.8C655.25,476.19,655.49,475.42,655.74,474.65z"/>
		<path class="st3" d="M655.82,477.77c0.88-0.59,1.04-1.49,1.04-2.46c0.09,0.07,0.19,0.13,0.29,0.17c-0.01,0.91-0.01,1.81-0.02,2.72
			c-0.69,0.53,0.01,1.61-0.82,2.09C655.02,479.68,656.94,478.43,655.82,477.77z"/>
		<path class="st3" d="M666.14,501.46c1.72-0.71,2.5,0.38,3.17,1.67c-1.53,0.65-2.28-0.48-3.13-1.38
			C666.16,501.66,666.15,501.56,666.14,501.46z"/>
		<path class="st3" d="M664.32,502.71c-0.3,0.04-0.59,0.08-0.89,0.12c0-0.39,0.01-0.77,0.01-1.16c0.64,0.34,1.25-1.64,1.9-0.02
			C665,502,664.66,502.36,664.32,502.71z"/>
		<path class="st3" d="M661.36,492.32c-1.27,1.06-1.29-0.36-1.75-0.89c0.42-0.65,1.16-0.57,1.77-0.78
			C661.37,491.21,661.36,491.77,661.36,492.32z"/>
		<path class="st4" d="M664.26,490.06c0.03,0.49,0.06,1-0.68,0.88c-0.33-0.06-0.69-0.35-0.56-0.62
			C663.27,489.78,663.82,490.04,664.26,490.06C664.27,490.07,664.26,490.06,664.26,490.06z"/>
		<path class="st3" d="M660.79,482.06c0,0-0.05-0.01-0.05-0.01c-0.27-1.08-2.2,0.26-2.05-1.42l-0.03,0.03
			C659.56,480.84,660.93,480.3,660.79,482.06z"/>
		<path class="st3" d="M657.19,482.56c-0.52-0.55-0.89-1.17-0.85-1.96C657.4,480.92,657.55,481.63,657.19,482.56z"/>
		<path class="st3" d="M658.69,480.63c-0.48-0.06-0.95-0.14-0.9-0.78c0.01-0.11,0.19-0.3,0.25-0.29c0.61,0.12,0.54,0.65,0.63,1.09
			C658.66,480.66,658.69,480.63,658.69,480.63z"/>
		<path class="st3" d="M670.78,520.18c0.25-0.76,0.72-1.17,1.52-0.83c0.44,0.18,0.47,0.53-0.01,0.78c-0.44-0.38-0.88,0.36-1.32,0
			L670.78,520.18z"/>
		<path class="st3" d="M670.97,520.12c0.44-0.14,0.88-0.7,1.32,0c-0.17,0.17-0.33,0.34-0.5,0.51c-0.29,0.15-0.58,0.3-0.86,0.46
			C670.94,520.77,670.95,520.45,670.97,520.12z"/>
		<path class="st3" d="M665.25,502.81c0.62,0.22,1.1,0.54,0.91,1.31C665.12,504.19,665.24,503.46,665.25,502.81z"/>
		<path class="st3" d="M673.83,526.33c0.65,0.51-0.01,0.92-0.1,1.38c-0.33,0.56-0.64,0-0.96-0.01
			C673.12,527.24,673.47,526.78,673.83,526.33z"/>
	</g>
</g>
</svg>
