<?xml version="1.0" encoding="utf-8"?>
<!-- Generator: Adobe Illustrator 24.0.1, SVG Export Plug-In . SVG Version: 6.00 Build 0)  -->
<svg version="1.1" id="Layer_1" xmlns="http://www.w3.org/2000/svg" xmlns:xlink="http://www.w3.org/1999/xlink" x="0px" y="0px"
	 viewBox="0 0 1366 768" style="enable-background:new 0 0 1366 768;" xml:space="preserve">
<style type="text/css">
	.st0{fill:#F9FAEC;}
	.st1{fill:#D4E294;}
	.st2{fill:#E8E7E7;stroke:#FFFFFF;stroke-miterlimit:10;}
</style>
<path class="st0" d="M255.84,423.16c0.13-0.01,0.26-0.01,0.39-0.01c0.79,1,1.41,2.09,1.83,3.29c-1.31,1.76-2.22,0.49-3.17-0.43
	c-0.21-0.39-0.56-0.5-0.97-0.51C254.83,424.94,255.58,424.25,255.84,423.16z"/>
<path class="st1" d="M252.95,427.96c-0.63-0.08-1.28-0.1-1.75-0.63c0.12-1.88,1.26-0.01,1.77-0.48
	C253.25,427.23,253.31,427.6,252.95,427.96z"/>
<path class="st2" d="M701.28,377.12c-0.02,2.81,0.4,5.56,1.03,8.31c0.61,2.63,2.32,2.31,4.06,1.81c2.77-0.8,3.95,0.2,3.57,3.18
	c-0.38,2.93-1.73,5.63-1.94,8.6c-0.06,0.86-0.2,1.73-0.11,2.57c0.3,2.84-1.04,4.75-3.25,6.31c-1.28,0.9-2.98,1.43-3.2,3.43
	c-0.08,0.69-0.82,0.6-1.34,0.26c-1.14-0.74-2.19-0.46-2.86,0.55c-0.86,1.31-1.47-0.18-2.18-0.05c-3.1,0.61-5.94-0.3-8.77-1.43
	c-0.79-0.32-1.7-0.21-2.53,0.14c-0.37,0.16-0.87,0.26-1.04-0.13c-0.12-0.28,0-0.83,0.22-1.07c2.74-2.99,2.61-7.53,5.7-10.39
	c1.04-0.96-0.3-4.06-2.02-4.59c-4.68-1.47-8.81-3.85-12.65-6.85c-1.46-1.14-3.43-0.48-5.05-1.38c-3.33-1.85-6.4-4-8.88-6.91
	c-1.16-1.36-1.86-3.05-3.32-4.22c-1.35-1.08-0.25-2.54,0.08-3.63c0.8-2.61,1.82-5.1,1.66-7.94c-0.11-2,2.11-3.01,2.55-4.89
	c0.56-2.38,2.52-2.26,4.44-2.54c2.99-0.43,5.83-1.66,8.89-1.75c5.2-0.15,9.94,1.55,11.49,8.6c0.72,3.24,0.34,6.32,0.16,9.46
	c-0.07,1.17,0.16,1.52,1.22,1.72c2.95,0.57,5.76,1.37,8.95,0.51C697.69,374.4,700.14,375.09,701.28,377.12
	C701.28,377.12,701.28,377.12,701.28,377.12z"/>
</svg>
