<?xml version="1.0" encoding="utf-8"?>
<!-- Generator: Adobe Illustrator 24.0.1, SVG Export Plug-In . SVG Version: 6.00 Build 0)  -->
<svg version="1.1" id="Layer_1" xmlns="http://www.w3.org/2000/svg" xmlns:xlink="http://www.w3.org/1999/xlink" x="0px" y="0px"
	 viewBox="0 0 1366 768" style="enable-background:new 0 0 1366 768;" xml:space="preserve">
<style type="text/css">
	.st0{fill:#F9FAEC;}
	.st1{fill:#D4E294;}
	.st2{fill:#E8E7E7;}
</style>
<path class="st0" d="M255.84,423.16c0.13-0.01,0.26-0.01,0.39-0.01c0.79,1,1.41,2.09,1.83,3.29c-1.31,1.76-2.22,0.49-3.17-0.43
	c-0.21-0.39-0.56-0.5-0.97-0.51C254.83,424.94,255.58,424.25,255.84,423.16z"/>
<path class="st1" d="M252.95,427.96c-0.63-0.08-1.28-0.1-1.75-0.63c0.12-1.88,1.26-0.01,1.77-0.48
	C253.25,427.23,253.31,427.6,252.95,427.96z"/>
<path class="st2" d="M703.61,395.43c-0.66,0.63-1.75,0.95-1.05,2.35c0.32,0.64-0.35,1.77-1,1.91c-3.35,0.71-2.66,3.21-2.62,5.46
	c-0.37-0.22-0.61-0.59-0.52-0.98c0.76-3.22-1.1-5.04-3.43-6.69c-1.31-0.93-3.06-1.54-3.11-3.65c-0.01-0.34-0.56-0.77-0.95-0.99
	c-4.67-2.61-9.36-5.17-14.17-7.55c-3.65-1.81-7.65-3.42-10.47-6.74c-1.9-2.24-4.59-3.76-5.88-6.59c-0.26-0.56-0.8-1.02-0.53-1.67
	c0.99-2.38,0.46-4.39-1.28-6.23c-0.4-0.42-0.48-1.14-0.7-1.72c15.83,0,31.67,0.02,47.5-0.04c1.56-0.01,2.01,0.22,2.03,1.97
	c0.02,2.3-1.31,4.62,0.15,6.99c0.39,0.64-0.45,1.84-1.18,2.64c-1.2,1.32-2.52,2.69-0.98,4.68c0.71,0.92-0.88,1.61-0.44,2.58
	c0.02,0.11,0.04,0.21,0.07,0.32c0.37,1.72,0.37,3.62,2.36,4.51c0.49,0.22,0.55,0.71,0.39,1.21c-0.15,0.44-0.29,0.91-0.55,1.28
	C705.75,390.66,703.78,392.57,703.61,395.43z"/>
</svg>
