<?xml version="1.0" encoding="utf-8"?>
<!-- Generator: Adobe Illustrator 24.0.1, SVG Export Plug-In . SVG Version: 6.00 Build 0)  -->
<svg version="1.1" id="Layer_1" xmlns="http://www.w3.org/2000/svg" xmlns:xlink="http://www.w3.org/1999/xlink" x="0px" y="0px"
	 viewBox="0 0 1366 768" style="enable-background:new 0 0 1366 768;" xml:space="preserve">
<style type="text/css">
	.st0{fill:#F9FAEC;}
	.st1{fill:#D4E294;}
	.st2{fill:#E9E8E8;stroke:#FFFFFF;stroke-miterlimit:10;}
</style>
<path class="st0" d="M255.84,423.16c0.13-0.01,0.26-0.01,0.39-0.01c0.79,1,1.41,2.09,1.83,3.29c-1.31,1.76-2.22,0.49-3.17-0.43
	c-0.21-0.39-0.56-0.5-0.97-0.51C254.83,424.94,255.58,424.25,255.84,423.16z"/>
<path class="st1" d="M252.95,427.96c-0.63-0.08-1.28-0.1-1.75-0.63c0.12-1.88,1.26-0.01,1.77-0.48
	C253.25,427.23,253.31,427.6,252.95,427.96z"/>
<path class="st2" d="M693.53,378.12c2.73,1.6,3.38,5.14,6.21,6.65c1.15,0.61,0.55,1.24-0.05,1.8c-2.02,1.87-1.77,4.15-1.39,6.55
	c0.36,2.33-1.45,3.88-2.65,5.45c-1.42,1.86-3.87,2.58-5.93,3.64c-0.72,0.37-2.09-0.07-2.94-0.55c-1.22-0.69-2.62-0.79-3.62-0.37
	c-3.31,1.39-5.58-0.55-7.87-2.17c-1.27-0.9-2.5-0.78-3.78-0.66c-0.69,0.06-1.34,0.36-2-0.09c-0.3-0.46-0.62-0.9-1.05-1.25
	c-2.72-2.2-3.48-5.01-2.17-8.02c0.09-0.22,0.17-0.53,0.36-0.58c2.54-0.62,1.28-2.39,1.33-3.89c0.07-2.37-0.07-4.71,0.5-7.15
	c0.63-2.68,2.04-5.35,1.38-8.26c-0.19-0.85,0.2-1.45,0.78-1.8c1.75-1.04,3.66-1.75,5.65-2.24c2.41,1.72,4.81,3.45,5.78,6.44
	c0.31,0.98,0.83,0.88,1.34,0.35c1.27-1.32,2.17-0.5,2.8,0.57c0.69,1.17,1.6,1.97,2.87,2.19
	C691.2,375.08,692.29,376.68,693.53,378.12L693.53,378.12z"/>
</svg>
